<?xml version="1.0" encoding="UTF-8"?>
<svg viewBox="0 0 1225 817" xmlns="http://www.w3.org/2000/svg">
 <g fill-rule="evenodd" stroke-width=".5">
  <path d="m0 408.5v-408.5h1225v817h-1225v-408.5zm693-365.7v-0.3l20 0.5q20 0.5 31.5 3.5t12.5 3.5-1.5 1.5 10.5 5 22.5 9.5 15.3 14.8q5.7 9.2 6.7 15.7t0 15-3.7 16.3q-2.8 7.7-7.6 13.4-4.7 5.8-5 9.8l-0.2 4h0.5l0.3 0.2 0.2 0.3 10.5 4q10.5 4 14.7 8.3 4.3 4.2 4.8 6.2l0.5 2 0.5 1 0.5 1 0.5 1.5 0.5 1.5 0.3 1 0.2 1h0.5v7.5q0 7.5 0 14t9 54.5 9.5 50.5l0.5 2.5 0.5 2 0.5 2 0.3 0.2 0.2 0.3 0.2 0.3 0.3 0.2 0.3 1 0.2 1v0.5l0.2 0.3 0.3 0.2v4h-0.5l-1.5 0.2q-1.5 0.3 3 3 4.5 2.8 4.3 13.8-0.3 11-3.6 13-3.2 2-3.4 3.5-0.3 1.5-2.6 3-2.2 1.5-2.2 2.5t-1.5 1.2q-1.5 0.3-2 1.6-0.5 1.2-6.5 3.7t-6 1.5-1.8-1h-1.7l-0.3-0.2-0.2-0.3h-2l-0.2 0.3-0.3 0.2v8l0.3 1 0.2 1 1 0.2 1 0.3v0.5l6.8 4q6.7 4 7.7 8t2.3 4.5q1.2 0.5 1.2 1.5t12 6.8q12 5.7 15.2 11 3.3 5.2 3.3 19.2t-4.3 19.2q-4.2 5.3-5.2 5.6l-1 0.2-0.2 0.5q-0.3 0.5-0.6 0.5h-0.2l-0.5 0.2q-0.5 0.3-5 0.8l-4.5 0.5-1 0.5-1 0.5-0.2 0.3-0.3 0.2-0.3 0.2-0.2 0.3 0.2 0.3 0.3 0.2v2l-0.3 0.2-0.2 0.3 0.2 0.3q0.3 0.2 0.6 0.7l0.2 0.5 1 0.2q1 0.3 1 0.6v0.2l1.8 1q1.7 1 1.7 2v1l-0.5 1q-0.5 1-1 1.5t-10.2 6.7l-9.8 6.3-1 0.5-1 0.5-1 0.5-1 0.5-0.2 0.3-0.3 0.2h-0.5l-0.2 0.5-0.3 0.5-0.3 0.2-0.2 0.3 1.5 0.5 1.5 0.5 51 5q51 5 70 9.5t22.2 6.2q3.3 1.8 3.6 2.8 0.2 1 3.4 3 3.3 2 4.6 5.5 1.2 3.5 5 7 3.7 3.5 8 6 4.2 2.5 4.7 4.5t3.7 3q3.3 1 3.6 1.2l0.2 0.3 1 0.5 1 0.5 1 0.5 1 0.5 2 0.5 2 0.5v0.5l8 2.8q8 2.7 14 6.4 6 3.8 6 4.8t7.2 7q7.3 6 13 12.2 5.8 6.3 6.8 6.6 1 0.2 7.2 9.7 6.3 9.5 6.8 10.5l0.5 1 0.3 0.2 0.2 0.3 0.2 0.3 0.3 0.2 0.5 1.5 0.5 1.5 0.3 1 0.2 1h0.2q0.3 0 0.6 0.5l0.2 0.5 4.2 13q4.3 13 3.8 26.5t-4 21.5-5.8 11.2q-2.2 3.3-3.2 3.6-1 0.2-2.2 9.7-1.3 9.5-4.6 12.3-3.2 2.7-8.7 4.2t-6.5 1.8l-1 0.2-0.2 0.5q-0.3 0.5-2.6 2-2.2 1.5-2.4 2.5-0.3 1-13 7.2-12.8 6.3-32.3 12.8l-19.5 6.5-1.5 0.5-1.5 0.5-1 0.3-1 0.2-1 0.2q-1 0.3-23 5.3t-57 10-75 8-139 3-110.5-1.5-23-4.5l-11.5-3-1-0.3-1-0.2-0.5-0.2q-0.5-0.3-0.5-0.6v-0.2l-1.5-0.2q-1.5-0.3-2.5-0.8t-32-5-42-7-33.5-6.5-46.5-10.5-37-13-19-11-9.5-8.2q-3.5-3.8-14-10-10.5-6.3-16.5-11.8t-8.2-11.2q-2.3-5.8-3.8-25.8t-0.5-23.5l1-3.5 0.5-1.5 0.5-1.5 0.3-0.2 0.2-0.3 0.2-0.3 0.3-0.2 0.5-2 0.5-2h0.5l-0.2-1q-0.3-1 3.2-11t10.8-21.5l7.2-11.5 0.2-2 0.3-2 0.3-0.2 0.2-0.3-1.5-0.3-1.5-0.2 0.2-1.5 0.3-1.5 0.3-0.2 0.2-0.3h-3q-3 0-25.5-1.5t-28.7-3.8l-6.3-2.2-0.3-0.2-0.2-0.3-3-0.5-3-0.5-1-0.3-1-0.2-7.5-0.2q-7.5-0.3-14-6.3t-8.7-11.3q-2.3-5.2-2.3-11.2t3-10l3-4 0.3-0.2 0.2-0.3 0.2-0.3 0.3-0.2 0.3-0.2 0.2-0.3 1-0.5 1-0.5 0.2-0.3 0.3-0.2 0.3-0.2 0.2-0.3 1-0.3 1-0.2 0.2-1 0.3-1h0.5l4-5.2q4-5.3 18-13.8t56.5-31.5 82.5-40.5 72.8-31.8q32.7-14.2 37-20 4.2-5.7 10.2-9.7t7-4.3l1-0.2 0.5-0.2q0.5-0.3 2-0.8l1.5-0.5 1.5-0.5 1.5-0.5h6l0.2 0.3 0.3 0.2v1l-0.3 0.2-0.2 0.3-1 0.5q-1 0.5-1.8 1.8l-0.7 1.2-0.3 1-0.2 1 1.5-0.2 1.5-0.3 1.5-0.5 1.5-0.5 6-3.5q6-3.5 9.2-7.2 3.3-3.8 9-11.6 5.8-7.7 16.8-15.2t12.5-8.5 2.5-1.3l1-0.2v-0.2q0-0.3 3-2.3t-2-32.5-6.2-28.8q-1.3 1.8-2.8-0.2l-1.5-2-0.5-2q-0.5-2-0.8-3.5l-0.2-1.5-0.2-0.5-0.3-0.5-0.5-2-0.5-2-0.3-0.2-0.2-0.3 0.2-0.3 0.3-0.2 1.5-5.5q1.5-5.5 6.8-12.3 5.2-6.7 8.7-9.7t4.5-3.5l1-0.5 0.2-0.3 0.3-0.2 0.3-0.5 0.2-0.5-0.2-1-0.3-1-0.3-0.2-0.2-0.3-0.2-0.3-0.3-0.2-0.5-1-0.5-1-0.3-1q-0.2-1-5.2-3.2-5-2.3-11-7.3t-10.8-13.7q-4.7-8.8-5.2-19.3t1.5-16.5l2-6 0.5-1q0.5-1 0.8-1.5l0.2-0.5v-0.5l0.2-0.3 0.3-0.2 0.5-1 0.5-1 0.3-0.2 0.2-0.3 5.8-7.3q5.7-7.2 16.7-17.7t12.3-9.7q1.2 0.7 3.2-0.3t3-1.3l1-0.2v-0.2q0-0.3 0.5-0.6l0.5-0.2h0.5l0.3-0.2 0.2-0.3 1-0.5 1-0.5 17.5-7q17.5-7 22-8.5t6.5-2l2-0.5 1-0.5 1-0.5 1-0.5 1-0.5-1-0.5-1-0.5 0.2-0.3 0.3-0.2 0.3-0.2 0.2-0.3 0.2-0.3 0.3-0.2 0.3-0.2 0.2-0.3h-10l0.2-0.3 0.3-0.2 0.3-0.2 0.2-0.3 2.5-0.5 2.5-0.5 1.5-0.5 1.5-0.5 15.5-3q15.5-3 20-3.3l4.5-0.2v-0.2z" fill="#fff" stroke="#fff"/>
  <path d="m621.5 407.5h3.5l-0.2-0.3q-0.3-0.2-2-1.2-1.8-1-1.6-2l0.3-1 0.3 0.2 0.2 0.3h2l0.2-0.3 0.3-0.2 0.3 0.2 0.2 0.3 1.8 0.7q1.7 0.8 1.4 2.3l-0.2 1.5-0.2 4-0.3 4-0.3 0.2-0.2 0.3v0.5l-0.5 0.2q-0.5 0.3-0.5 0.6v0.2l-3.2 3q-3.3 3-3.8 9.5t-7.5 11.5-10 11-3.5 10.5 0 10l0.5 5.5 0.5 1.5 0.5 1.5 0.5 1.5 0.5 1.5h0.5v0.5l0.2 0.3 0.3 0.2 0.3 1 0.2 1v4l-3 0.2q-3 0.3-38 1.8t-82 5.5l-47 4-3 0.5-3 0.5v0.5l-3 0.2q-3 0.3-15 2.8t-19.2 5.8q-7.3 3.2-8.8 7.7t-4.2 5.5l-2.8 1-1.5 0.2q-1.5 0.3-14.5 5.8t-23.5 13.5l-10.5 8-0.2 0.3-0.3 0.2-0.3 0.2-0.2 0.3-0.2 0.3-0.3 0.2-0.3 0.2-0.2 0.3-1 0.5q-1 0.5-1 0.8v0.2h-0.2q-0.3 0-0.6 0.5l-0.2 0.5h-0.5l-0.3 0.5-0.2 0.5-5 4.8q-5 4.7-5.2 5l-0.3 0.2-0.3 0.2-0.2 0.3-0.2 0.3-0.3 0.2-0.3 0.2-0.2 0.3-0.5 0.3-0.5 0.2 0.2-2 0.3-2 0.3-0.2 0.2-0.3-1.5-0.3-1.5-0.2 0.2-1.5 0.3-1.5 0.3-0.2 0.2-0.3h-3q-3 0-25.5-1.5t-28.7-3.8l-6.3-2.2-0.3-0.2-0.2-0.3-3-0.5-3-0.5-1-0.3-1-0.2 0.2-0.5 0.3-0.5 0.3-0.2 0.2-0.3 2-0.5 2-0.5 7.5-1q7.5-1 33.5-12t62-27.5 53.5-26.5 18.5-10.5l1-0.5 1-0.5 1-0.5 1-0.5 1-0.5 0.2-0.3 0.3-0.2 0.3-0.2 0.2-0.3 1-0.5 1-0.5v-0.5l41-23.2q41-23.3 51.5-24.3t12-1.5 2-0.8l0.5-0.2 1.5-0.2 1.5-0.3 1.5-0.5 1.5-0.5 0.2-0.3 0.3-0.2 0.3-0.2 0.2-0.3 1-0.5 1-0.5 1-0.5q1-0.5 2-1t4.5-4.8q3.5-4.2 1.5-4.2t-2-1v-1l1-0.2 1-0.3 5.5-2q5.5-2 19-3t15.5-1.3l2-0.2-0.2-1.5q-0.3-1.5-1-3.5l-0.8-2v-4h0.5l0.3-1 0.2-1h0.2q0.3 0 0.6-0.5l0.2-0.5 0.5-1q0.5-1 1.7-0.5 1.3 0.5 0.3 2t0 6 6.7 9.3q5.8 4.7 14.3 6.7t12 2z" fill="#fefefe" stroke="#fefefe"/>
  <path d="m1012.5 708l1.5-0.5h2l-0.2 0.3-0.3 0.2-0.3 0.2-0.2 0.3-0.2 0.3-0.3 0.2-0.5 3.5-0.5 3.5-0.5 1-0.5 1-0.3 0.2-0.2 0.3 0.5 0.3 0.5 0.2-0.2 1-0.3 1v2l0.3 0.2 0.2 0.3 1.5 0.5 1.5 0.5h2l12-1q12-1 18-2.5t7-1.5h1l-0.2-0.3-0.3-0.2-0.3-0.2-0.2-0.3 0.2-0.3 0.3-0.2 0.3-0.2 0.2-0.3 0.2-0.3 0.3-0.2 0.5 1 0.5 1v1l0.5 1q0.5 1 0.5 3t0.3 1.8l0.2-0.3 2-0.3 2-0.2-0.2 0.5q-0.3 0.5-2.6 2-2.2 1.5-2.4 2.5-0.3 1-13 7.2-12.8 6.3-32.3 12.8l-19.5 6.5-1.5 0.5-1.5 0.5-1 0.3-1 0.2v-0.5l0.2-0.3 0.3-0.2 0.3-0.2 0.2-0.3-2-0.5-2-0.5 0.2-0.3 0.3-0.2 0.3-0.2 0.2-0.3 0.2-0.3 0.3-0.2 0.3-0.2 0.2-0.3 0.2-0.3 0.3-0.2 0.3-0.2 0.2-0.3 0.2-0.3 0.3-0.2 0.3-0.2 0.2-0.3 4-3q4-3 4.5-3.5t-0.7-1.2q-1.3-0.8 0.4-2.6 1.8-1.7 2.8-2.2l1-0.5 0.2-0.3 0.3-0.2 0.3-0.2 0.2-0.3 0.2-0.3 0.3-0.2 0.3-0.2 0.2-0.3 0.2-0.3 0.3-0.2 0.3-0.2 0.2-0.3 0.2-0.3 0.3-0.2 0.3-0.2 0.2-0.3 0.2-0.3 0.3-0.2 0.3-0.2 0.2-0.3h-2l-4.5 0.5q-4.5 0.5-8 1.5t-52.5 8-106.5 11-123 4.5-92.5-0.8l-27-1.2v-0.5l11-0.5 11-0.5 1-0.5 1-0.5-1.5-0.3-1.5-0.2v-2l1.5-0.2 1.5-0.3 0.2-0.3 0.3-0.2 0.3-0.2 0.2-0.3 0.2-0.3 0.3-0.2 0.3-0.2 0.2-0.3-5-0.5q-5-0.5-7-0.8-2-0.2-2-2.7t-2-2.7q-2-0.3-3.8-1.6-1.7-1.2-3.4-2-1.8-0.7-2.3-2.4-0.5-1.8-4-2.6l-3.5-0.7-1.5-0.5-1.5-0.5-1.5-0.5-1.5-0.5v-0.5l0.5-0.2 0.5-0.3 0.2-0.3 0.3-0.2 0.3 0.2 0.2 0.3h4q4 0 2-0.5t8.5-2.5 14.5-2.5 2-2 6.5-2 10.5-0.5h2l1-0.3 1-0.2v-2l-3-0.2-3-0.3 0.2-0.3 0.3-0.2 0.3-0.2 0.2-0.3 5.5-0.5 5.5-0.5 0.2-0.3 0.3-0.2 0.3-0.2 0.2-0.3 1-0.5 1-0.5v-0.5l3.5-0.5q3.5-0.5 3.5 0.5t15 2.2q15 1.3 17.5 2.3t15.5 2.5 30 3.5 25 3.5 15.5 3 37.5 2 32.5 0 20.5-1.5 28.5-3 33.3-6.3q22.7-4.2 23.4-5 0.8-0.7 13.3-1.2t14-1 2-0.8l0.5-0.2 1.5-0.2q1.5-0.3 1.5-0.6v-0.2l1.5-0.2 1.5-0.3 7-2.5q7-2.5 9-2.5t1.2 0.7q-0.7 0.8 2.6 0.6 3.2-0.3 8.2-1.6 5-1.2 3.5 0.6-1.5 1.7 0.5 1.7t3.5-0.5z" fill="#5c4547" stroke="#5c4547"/>
  <path d="m872.5 568.2l6.5-0.2-0.2 0.5q-0.3 0.5-0.6 0.7-0.2 0.3-4.7 1.3l-4.5 1-1.5 0.5-1.5 0.5 1 0.5 1 0.5 1 0.5 1 0.5 0.2 0.3 0.3 0.2 0.3-0.2 0.2-0.3 0.2-0.3 0.3-0.2 0.3 0.2 0.2 0.3 38.5 2.5q38.5 2.5 51.5 4t19 3 9 1.8l3 0.2-1.8 1q-1.7 1-1.4 1.2 0.2 0.3 2.2 0.8l2 0.5 1 0.5 1 0.5 1.5 2.3q1.5 2.2 8 5.2t8 5.2q1.5 2.3 3.7 3.6 2.3 1.2 6.6 5.4 4.2 4.3 5.2 4.6 1 0.2 1 1.2t2.8 3q2.7 2 3 3 0.2 1 1.4 1.5 1.3 0.5 2.6 3.3 1.2 2.7 2.4 3.4 1.3 0.8 1.8 3.8t2.5 11.5-2 23-8 19-7.7 9.7q-3.8 5.3-7.3 7.6-3.5 2.2-3.5 3.7t-1 1.5h-1l-0.2 2-0.3 2-0.5 1-0.5 1-0.3 0.2-0.2 0.3-0.2 0.3-0.3 0.2h-0.5l-0.5-0.2-0.5-0.3 0.2-0.3 0.3-0.2 0.5-1 0.5-1 0.5-3.5 0.5-3.5 0.3-0.2 0.2-0.3 0.2-0.3 0.3-0.2 0.3-0.2 0.2-0.3h-2l-1.5 0.5q-1.5 0.5-2 1.8-0.5 1.2-1.5 1.2t-1.5-2-7.5-1.2q-7 0.7-8.8 1-1.7 0.2-8 1.4l-6.2 1.3-1 0.5-1 0.5-2 0.3-2 0.2v-0.5l1-0.5 1-0.5 1.5-0.5 1.5-0.5 0.2-0.3 0.3-0.2 0.3-0.2 0.2-0.3h2l0.2 0.3q0.3 0.2 2-0.8 1.8-1 2.3-2.2 0.5-1.3 5.5-4.8t5.2-5.8q0.3-2.2-2-4.2-2.2-2-2.4-4.5-0.3-2.5 1.4-5.5 1.8-3 3-3.5 1.3-0.5 1.6-2.5 0.2-2 1.7-2.2 1.5-0.3 2.5-1.6 1-1.2 3-1.4 2-0.3 3-3.6 1-3.2 2-3.2t0.8-5.5q-0.3-5.5-4-9.3-3.8-3.7-8.3-4.2t-8.5 2.2q-4 2.8-4.2 4.8-0.3 2-8.6 2.2-8.2 0.3-11.4-0.4-3.3-0.8-10-1.3-6.8-0.5-7.8 2t-4.5 4-4 3.5-2 2-2.3 1.5q-0.7 1.5-12 5.3-11.2 3.7-12 5-0.7 1.2-2 1.4-1.2 0.3-4.2 1.3t-8.2-0.7q-5.3-1.8-7-1.8-1.8 0-1.8-1t-4-1.5-5-3-3-2.7q-2-0.3-2.8-1.6-0.7-1.2-4-2.4-3.2-1.3-9.2-3.3t-11-2.5-10-2-9.5-2.2q-4.5-0.8-4.7 0.2-0.3 1-3-1.2-2.8-2.3-8.3-3.6-5.5-1.2-5.5-0.2t-2 0.8q-2-0.3-2.5-1.6-0.5-1.2-3-1.2t-2.5 1-1.5 0.8q-1.5-0.3-9-4l-7.5-3.8-0.2-0.5q-0.3-0.5-5-1.5-4.8-1-5-2-0.3-1-2-1.5-1.8-0.5-2-2-0.3-1.5-1.6-2-1.2-0.5-2.2-2.3-1-1.7-1 0 0 1.8-1.2 1.3l-1.3-0.5-0.3-2q-0.2-2-1.2-2.2l-1-0.3 0.8-1.3q0.7-1.2 1.7-4.2t1.7-6q0.8-3 2.6-4.5 1.7-1.5 1.7-5.5t-0.3-6.2q-0.2-2.3-1.7-4-1.5-1.8 2-4 3.5-2.3 5.5-2.6 2-0.2 2-1.2t16.5-4.2q16.5-3.3 24.5-4.3t12-1.3l4-0.2 1-0.2 1-0.3 18.5-3.5q18.5-3.5 25-3.8zm136.7 137.6q-0.2-0.3 0-0.6 0.3-0.2 0.3 0.3t-0.3 0.3z" fill="#614742" stroke="#614742"/>
  <path d="m501.5 591.8l0.5 0.2 2.2 1q2.3 1 2 1.2l-0.2 0.3 0.2 0.3 0.3 0.2 0.3 0.2 0.2 0.3 5.5 1q5.5 1 10 1.7 4.5 0.8 4.5 1.8t3 3.2q3 2.3 4.5 2.6 1.5 0.2 2 1.4 0.5 1.3 7 5 6.5 3.8 9.7 8.8 3.3 5 3.3 8t-0.3 5.5q-0.2 2.5-2.7 3t-4.3 5q-1.7 4.5-1.7 7.5t-0.7 6.8q-0.8 3.7-1.8 6.2t-3.8 3.8q-2.7 1.2-3 2.2-0.2 1-5 3-4.7 2-9.2 4.5t-5.2 3.7q-0.8 1.3-1 1.6l-0.3 0.2-0.3 0.2-0.2 0.3-1 0.5-1 0.5v0.5h-0.5l-0.3 0.5-0.2 0.5h-0.2q-0.3 0-2 0.5-1.8 0.5-1.8-0.5t-5-0.2q-5 0.7-13 2.2t-13.5 1.5-31-1.5-30.5-3-13-2.5-9.5-2-2.3-0.3q-0.7 0.8-1-0.2-0.2-1-9.2-3.2-9-2.3-9.5-3.6-0.5-1.2-1.5-1.4-1-0.3-2-2-1-1.8-2.5-1.8t-1.7-1.5q-0.3-1.5-1.6-2.5-1.2-1-1.2 0.5t-1.5 1.3q-1.5-0.3-2.5-2-1-1.8-2.2-2.3-1.3-0.5-2-4.5-0.8-4-1.8-4t-0.8-1q0.3-1-1.2-4t-1.8-6q-0.2-3-1.2-3t-1-1.5 1-1.5 0.8-6q-0.3-6 5.2-12.5t7.2-6.7q1.8-0.3 1.8-2v-1.8l2.5-1.2q2.5-1.3 4.7-1.6 2.3-0.2 2.6 0.6 0.2 0.7 2.7 0 2.5-0.8 2.5-1.8t2 0.2q2 1.3 3 1 1-0.2 3-3 2-2.7 4-3 2-0.2 2-1.2t1-1 1 1.5 1 1.5 1-1 2.5-1.8q2.5-0.7 6-2.7t14-2 20.5 1 33.5 0 26.5-0.5 3.5 0.8zm12.7 5.4q0.3-0.2 0.6 0 0.2 0.3-0.3 0.3t-0.3-0.3z" fill="#b79d95" stroke="#b79d95"/>
  <path d="m827 493.2l1-0.2-0.2 0.5-0.3 0.5-0.3 0.2-0.2 0.3 1.5 0.5 1.5 0.5 51 5q51 5 70 9.5t22.2 6.2q3.3 1.8 3.6 2.8 0.2 1 3.4 3 3.3 2 4.6 5.5 1.2 3.5 5 7 3.7 3.5 8 6 4.2 2.5 4.7 4.5t3.7 3q3.3 1 3.6 1.2l0.2 0.3 1 0.5 1 0.5 1 0.5 1 0.5 2 0.5 2 0.5v0.5l-4-0.2-4-0.3h-3.5q-3.5 0-11.7 0.3l-8.3 0.2-0.3-0.2-0.2-0.3-1-0.3-1-0.2 0.2-1q0.3-1 1.3-2t0-6-2.3-4.8q-1.2 0.3-3.7-3-2.5-3.2-5.5-3.2h-3l-2.5 0.2q-2.5 0.3-9.5 1.8t-40.5 5.5-61 4.3l-27.5 0.2-3-0.2q-3-0.3-7-0.8t-16.5-4-41-10l-28.5-6.5-2.5-0.5-2.5-0.5 1.5-0.5 1.5-0.5 26.5-5.5q26.5-5.5 46.5-13t20.5-8 1.5-0.8z" fill="#c1b9ae" stroke="#c1b9ae"/>
  <path d="m360.8 606h1.2v1.8q0 1.7-1.8 2-1.7 0.2-7.2 6.7t-5.2 12.5q0.2 6-0.8 6t-1 1.5 1 1.5 1.2 3q0.3 3 1.8 6t1.2 4q-0.2 1 0.8 1t1.8 4q0.7 4 2 4.5 1.2 0.5 2.2 2.3 1 1.7 2.5 2 1.5 0.2 1.5-0.8t-2-1.8q-2-0.7 1.2 0 3.3 0.8 3.6 2.8 0.2 2 1.7 2t2.5 1.8q1 1.7 2 2 1 0.2 1.5 1.4 0.5 1.3 9.5 3.6 9 2.2 9.2 3.2 0.3 1 1 0.2 0.8-0.7 2.3 0.3t9.5 2 13 2.5 30.5 3 31 1.5 13.5-1.5 13-2.2q5-0.8 5 0.2t1.8 0.5q1.7-0.5 2-0.5h0.2l0.2-0.5 0.3-0.5h0.5l0.5 1q0.5 1-0.5 1.2-1 0.3 0 0.8l1 0.5 1 0.3 1 0.2 0.2 1.5 0.3 1.5 0.3-1q0.2-1 3-1 2.7 0 3 0.2l0.2 0.3h2l0.2-0.3 0.3-0.2 0.3 0.2 0.2 0.3 1 0.5 1 0.5-0.2 0.3-0.3 0.2-0.3 0.2-0.2 0.3 0.2 0.3 0.3 0.2 0.3 0.5 0.2 0.5-1 0.2-1 0.3-1 0.5-1 0.5-1 0.5-1 0.5-0.2 0.3q-0.3 0.2-6 2-5.8 1.7-9.3 3.7l-3.5 2-0.2 0.3-0.3 0.2v5l0.3 0.2 0.2 0.3 0.2 0.3 0.3 0.2 0.3 1.5 0.2 1.5h1q1 0 1 1t9.5 4.2q9.5 3.3 13 3.3t16 3 21 4.5 9 1.8l0.5 0.2v0.5l1.5 0.5 1.5 0.5 1.5 0.5 1.5 0.5 3.5 0.7q3.5 0.8 4 2.6 0.5 1.7 2.3 2.4 1.7 0.8 3.4 2 1.8 1.3 3.8 1.6 2 0.2 2 2.7t2 2.7q2 0.3 7 0.8l5 0.5-0.2 0.3-0.3 0.2-0.3 0.2-0.2 0.3-0.2 0.3-0.3 0.2-0.3 0.2-0.2 0.3-1.5 0.3-1.5 0.2v2l1.5 0.2 1.5 0.3-1 0.5-1 0.5-11 0.5-11 0.5v0.5l-4.5-0.2q-4.5-0.3-17-0.6-12.5-0.2-12.5 1.8t-2.5 2.5-2.5 4.5-1 3.8q-1-0.3-1.2 1-0.3 1.2 2 2.4l2.2 1.3h-4l-1.5-0.3q-1.5-0.2-1.5 0.8v1l-1-0.2q-1-0.3-3-1.3t-33-5.5-42-7-33.5-6.5-46.5-10.5-37-13-19-11-9.5-8.2q-3.5-3.8-14-10-10.5-6.3-16.5-11.8t-8.2-11.2q-2.3-5.8-3.8-25.8t-0.5-23.5l1-3.5 0.5-1.5 0.5-1.5 0.3-0.2 0.2-0.3 0.2-0.3 0.3-0.2 0.5-2 0.5-2h0.5l0.2 3.5 0.3 3.5 1.3 2.8q1.2 2.7 2.2 3 1 0.2 3.5 4.4 2.5 4.3 4.7 5 2.3 0.8 2.8 0.3t2.2 2.3q1.8 2.7 3.8 3.7t3.5 1.5l1.5 0.5 0.2 0.3 0.3 0.2 0.3 0.2 0.2 0.3 1.5 0.3 1.5 0.2-0.2-1q-0.3-1 0-4l0.2-3h2v7h2l0.2-1 0.3-1 0.3-0.2 0.2-0.3 0.2-0.3 0.3-0.2 0.5-1q0.5-1 0.8-5 0.2-4 1.2-4t1.2-2.5q0.3-2.5 3-4.3 2.8-1.7 3-3.4 0.3-1.8 2.6-5 2.2-3.3 8.7-6 6.5-2.8 6.7-1.3 0.3 1.5 3.6-1.3 3.2-2.7 6.4-4.4 3.3-1.8 4.6-1.8zm-38.6 32.2q0.3-0.2 0.6 0 0.2 0.3-0.3 0.3t-0.3-0.3z" fill="#8b5d5a" stroke="#8b5d5a"/>
  <path d="m341.8 457h11.2v4l-1 0.2-1 0.3-0.2 0.3-0.3 0.2-0.3 0.2-0.2 0.3-0.2 0.3-0.3 0.2-0.3 0.2-0.2 0.3-2 3.3q-2 3.2-4.8 4.7-2.7 1.5-3 3l-0.2 1.5h-2l0.2 2 0.3 2 0.3 0.2 0.2 0.3-0.2 0.3-0.3 0.2-0.3 0.2-0.2 0.3-0.2 0.3-0.3 0.2-0.3 0.2-0.2 0.3 8.5-1q8.5-1 28-5t27-5.5 8-1.5 1.5 0h1l4.5 0.3 4.5 0.2v0.5l-1 0.5-1 0.5-0.2 0.3-0.3 0.2-0.3 0.2-0.2 0.3-1 0.5-1 0.5-1 0.5-1 0.5-1 0.5q-1 0.5-18.5 10.5t-53.5 26.5-62 27.5-33.5 12l-7.5 1-2 0.5-2 0.5-0.2 0.3-0.3 0.2-0.3 0.5-0.2 0.5-7.5-0.2q-7.5-0.3-14-6.3t-8.7-11.3q-2.3-5.2-2.3-11.2t3-10l3-4 0.3-0.2 0.2-0.3 0.2-0.3 0.3-0.2 0.3-0.2 0.2-0.3 1-0.5 1-0.5 0.2-0.3 0.3-0.2 0.3-0.2 0.2-0.3 1-0.3 1-0.2 0.2-1 0.3-1h0.5l-0.2 1.5-0.3 1.5-0.3 0.2-0.2 0.3-0.2 0.3-0.3 0.2-0.3 2.5-0.2 2.5 3.5-0.2 3.5-0.3 11.5-5.5q11.5-5.5 40.5-19t50.8-23.2q21.7-9.8 22-9.8zm59.4 14.2q0.3-0.2 0.6 0 0.2 0.3-0.3 0.3t-0.3-0.3z" fill="#9e838b" stroke="#9e838b"/>
  <path d="m754.5 568.2l5.5-0.2 33 0.8q33 0.7 35.5 1l2.5 0.2-0.2 1q-0.3 1-1.8 2.5l-1.5 1.5-0.3 0.2-0.2 0.3v0.5l-4 0.2q-4 0.3-12 1.3t-24.5 4.3q-16.5 3.2-16.5 4.2t-2 1.2q-2 0.3-5.5 2.6-3.5 2.2-2 4 1.5 1.7 1.7 4 0.3 2.2 0.3 6.2t-1.7 5.5q-1.8 1.5-2.6 4.5-0.7 3-1.7 6t-1.7 4.2l-0.8 1.3 3.2 1.7q3.3 1.8 3.6 2.8 0.2 1 1.4 1.5 1.3 0.5 1.6 2 0.2 1.5 2 2 1.7 0.5 2 1.5 0.2 1 5 2 4.7 1 5 1.5l0.2 0.5-0.5 0.2q-0.5 0.3-1 0.3t-1 1.3q-0.5 1.2-1.5 1.2t-1-1-3-2.8q-3-1.7-3.2 0l-0.3 1.8-0.3 2.5q-0.2 2.5 1.3 2.3 1.5-0.3 3-0.3h1.5l-0.2 0.3-0.3 0.2-0.3 0.2-0.2 0.3-0.2 0.3-0.3 0.2-0.3 0.2-0.2 0.3-1.5 0.5-1.5 0.5h-1q-1 0-4 0.5t-6.5-1-4-0.2q-0.5 1.2-8.5-1-8-2.3-10.5-2-2.5 0.2-2.5-0.8v-1h-2l-0.5 1.2q-0.5 1.3 0.7 2 1.3 0.8 1.6 1.8l0.2 1-1.5-0.2-1.5-0.3-2.5-0.5q-2.5-0.5-14-1t-20.5 3.2q-9 3.8-9.2 4.8-0.3 1-2.6 2-2.2 1-3.2 2.2-1 1.3-5.5 2.6-4.5 1.2-4.7 2.2-0.3 1-2 1.5-1.8 0.5-1 3.5l0.7 3-0.3-0.2-0.2-0.3-0.2-0.3-0.3-0.2-0.3 1-0.2 1h-4l0.2-3q0.3-3 0.6-3.2l0.2-0.3-2.5-0.3-2.5-0.2-0.2 1-0.3 1-0.3 0.2-0.2 0.3-0.5 0.3-0.5 0.2 0.2-2 0.3-2 0.3-0.2 0.2-0.3 1-0.5q1-0.5 2-0.5t2-3.7q1-3.8 4-4.6 3-0.7 4-3.4 1-2.8 2.5-2.6 1.5 0.3 3.7-3 2.3-3.2 2.3-13.7v-10.5l-0.3-0.2-0.2-0.3-0.2-0.3-0.3-0.2-0.3 0.2-0.2 0.3-0.2 0.3q-0.3 0.2-2.6 2.2l-2.2 2-0.2-1.5q-0.3-1.5-1.6-4-1.2-2.5-0.2-2.7 1-0.3 0-0.6-1-0.2-1.2-1.7-0.3-1.5-3-2.3l-2.8-0.7v-0.5l-0.2-1-0.3-1h-0.5l-0.2-0.5-0.3-0.5-0.3-0.2-0.2-0.3-0.2-0.3-0.3-0.2-0.3-0.2-0.2-0.3v-0.5h0.5l0.3-0.2 0.2-0.3h7l0.2 0.3 0.3 0.2 0.3 1 0.2 1 1.5-0.2 1.5-0.3-0.2-0.3-0.3-0.2-0.3-0.2-0.2-0.3 0.2-0.3 0.3-0.2 0.5-1.5 0.5-1.5 0.3 0.2 0.2 0.3 0.2 0.3 0.3 0.2 0.3-1 0.2-1-1.5-0.2q-1.5-0.3-3.3 0.4l-1.7 0.8v-2l0.3-0.2 0.2-0.3-1-0.3-1-0.2 0.2-1.5 0.3-1.5 0.3-0.2 0.2-0.3 1-0.5 1-0.5 0.2-0.3 0.3-0.2 0.3-0.2 0.2-0.3 0.2-0.3 0.3-0.2 0.3-0.2 0.2-0.3 0.2-0.3 0.3-0.2 0.3 0.2 0.2 0.3 11.5-2.5q11.5-2.5 12.5-3l1-0.5 1.5-0.3 1.5-0.2 0.2-1.5 0.3-1.5 0.3-0.2 0.2-0.3h-2l-0.2 0.3-0.3 0.2-0.5-1-0.5-1-0.3-0.2-0.2-0.3-0.2-0.3-0.3-0.2-0.3-0.2q-0.2-0.3 0-0.6 0.3-0.2-0.7-1.7t-4.7-2.7l-3.8-1.3-1-0.5-1-0.5-0.2-0.3-0.3-0.2-0.3-0.2-0.2-0.3-1-0.5-1-0.5 1-0.5 1-0.5 0.2-0.3 0.3-0.2 0.3-0.2 0.2-0.3 0.5-0.3 0.5-0.2h22q22 0 22-1t12-1.2q12-0.3 17.5-0.6zm3.3 62.3l-1.3-0.5 1.3-0.5q1.2-0.5 1.2 0.5t-1.2 0.5zm-84.6 17.3q-0.2-0.3 0-0.6 0.3-0.2 0.3 0.3t-0.3 0.3z" fill="#471d1a" stroke="#471d1a"/>
  <path d="m821 184l1 0.5 0.2 0.3 0.3 0.2 0.3 0.2 0.2 0.3h3l0.2-0.3 0.3-0.2 0.5-1 0.5-1h1v7.5q0 7.5 0 14t9 54.5 9.5 50.5l0.5 2.5 0.5 2 0.5 2 0.3 0.2 0.2 0.3 0.2 0.3 0.3 0.2 0.3 1 0.2 1-0.5-0.2-0.5-0.3-0.2-0.3-0.3-0.2-0.3-0.2-0.2-0.3-0.2-0.3-0.3-0.2-0.3-0.2-0.2-0.3-1-0.5-1-0.5-1-0.5q-1-0.5-11.5-2.5t-44.5-1.3q-34 0.8-35.8-8.7-1.7-9.5-3.2-16.5t-4.5-24-8-40-7.3-34.2l-2.2-11.3 0.2-0.3 0.3-0.2 0.3-0.2 0.2-0.3 0.2-0.3 0.3-0.2 0.3-0.5 0.2-0.5 18-0.8q18-0.7 36.5 1.3t27.5 5.5 10 4z" fill="#f2e1bb" stroke="#f2e1bb"/>
  <path d="m602 490v-2l3 3.8q3 3.7 3.5 4l0.5 0.2v0.5l1 0.5 1 0.5 0.2 0.3 0.3 0.2 0.3 0.2 0.2 0.3 1 0.5 1 0.5 1 0.5 1 0.5 6.8 1.7q6.7 1.8 9 6.6 2.2 4.7 9.2 7.2t10 3 6 1l3 0.5 3 0.3 3 0.2v2l-2 0.2-2 0.3-2.5 0.5q-2.5 0.5-13 4.8-10.5 4.2-11.7 6.2-1.3 2-16.6 6.8-15.2 4.7-54.7 3.7l-39.5-1-0.2 0.3-0.3 0.2-0.3 0.5-0.2 0.5-1-0.2q-1-0.3-6.5-0.6l-5.5-0.2-1.5-0.2-1.5-0.3 5-0.5 5-0.5-4.5-0.5-4.5-0.5-4-0.5q-4-0.5-6-1t-7.2-3.2q-5.3-2.8-14-5-8.8-2.3-19.6-10-10.7-7.8-17.4-12l-6.8-4.3-1.5-0.5-1.5-0.5-2-0.3-2-0.2v-0.5l3-0.5 3-0.5 47-4q47-4 82-5.5t38-1.8l3-0.2v-2z" fill="#ccc3b9" stroke="#ccc3b9"/>
  <path d="m999.5 734l4.5-0.5h2l-0.2 0.3-0.3 0.2-0.3 0.2-0.2 0.3-0.2 0.3-0.3 0.2-0.3 0.2-0.2 0.3-0.2 0.3-0.3 0.2-0.3 0.2-0.2 0.3-0.2 0.3-0.3 0.2-0.3 0.2-0.2 0.3-0.2 0.3-0.3 0.2-0.3 0.2-0.2 0.3-1 0.5q-1 0.5-2.8 2.2-1.7 1.8-0.4 2.6 1.2 0.7 0.7 1.2t-4.5 3.5l-4 3-0.2 0.3-0.3 0.2-0.3 0.2-0.2 0.3-0.2 0.3-0.3 0.2-0.3 0.2-0.2 0.3-0.2 0.3-0.3 0.2-0.3 0.2-0.2 0.3-0.2 0.3-0.3 0.2-0.3 0.2-0.2 0.3 2 0.5 2 0.5-0.2 0.3-0.3 0.2-0.3 0.2-0.2 0.3v0.5l-1 0.2q-1 0.3-23 5.3t-57 10-75 8-139 3-110.5-1.5-23-4.5l-11.5-3-1-0.3-1-0.2-0.2-0.5-0.3-0.5h-0.5v-0.5l2-0.3q2-0.2 2-2.4 0-2.3 1-2 1 0.2 1-3.8t1.2-4.5q1.3-0.5 1.6-1.5 0.2-1 1.2-1t1-1 12.5-0.8q12.5 0.3 17 0.6l4.5 0.2 27 1.2q27 1.3 92.5 0.8t123-4.5 106.5-11 52.5-8 8-1.5z" fill="#3e3332" stroke="#3e3332"/>
  <path d="m675.5 183.2l2.5-0.2 1 0.2 1 0.3 0.2 0.3 0.3 0.2 1.3 2.5q1.2 2.5 2 3 0.7 0.5 2.7 18.5t4.5 31.5 3.8 20q1.2 6.5 2 7 0.7 0.5 1 6 0.2 5.5 1.2 5.5t1 5 1 5 2.2 9q1.3 9 2.8 15.5t1.5 7v0.5l-0.3 0.2-0.2 0.3v0.5l-1.5 0.2q-1.5 0.3-21 5-19.5 4.8-19.3 5.8 0.3 1-5.4 3.2-5.8 2.3-7.3 4-1.5 1.8-2.5 1.6-1-0.3-8 1l-7 1.2v-0.5h-3l-0.2 0.3-0.3 0.2-0.3-0.2-0.2-0.3h-1.5q-1.5 0-5.5-0.3-4-0.2-5.2-9.7-1.3-9.5-13.8-63t-10.8-56l1.8-2.5 16-7.2q16-7.3 38.5-13.8t25-6.8z" fill="#fcf8e9" stroke="#fcf8e9"/>
  <path d="m847.5 470.2l1.5-0.2v0.2q0 0.3 1 0.6l1 0.2 1.8 1q1.7 1 1.7 2v1l-0.5 1q-0.5 1-1 1.5t-10.2 6.7l-9.8 6.3-1 0.5-1 0.5-1 0.5-1 0.5-0.2 0.3-0.3 0.2h-0.5l-1 0.2q-1 0.3-1.5 0.8t-20.5 8-46.5 13l-26.5 5.5-1.5 0.5-1.5 0.5 2.5 0.5 2.5 0.5 28.5 6.5q28.5 6.5 41 10t16.5 4 7 0.8l3 0.2v0.5l4.5 0.5 4.5 0.5-4 0.5-4 0.5-6.5 0.5q-6.5 0.5-35 1.8l-28.5 1.2-10.5 0.2q-10.5 0.3-82.5-0.2t-108.5-2.2l-36.5-1.8 0.2-0.5 0.3-0.5 0.3-0.2 0.2-0.3 39.5 1q39.5 1 54.7-3.7 15.3-4.8 16.6-6.8 1.2-2 11.7-6.2 10.5-4.3 13-4.8l2.5-0.5 2-0.3 2-0.2v-2l-3-0.2-3-0.3-3-0.5q-3-0.5-6-1t-10-3-9.2-7.2q-2.3-4.8-9-6.6l-6.8-1.7-1-0.5-1-0.5-1-0.5-1-0.5-0.2-0.3-0.3-0.2-0.3-0.2-0.2-0.3-1-0.5-1-0.5v-0.5l10 0.8q10 0.7 14.5 0.7t22.5-5 26-6.7q8-1.8 7.5 0.4-0.5 2.3 3.5 2.3t13-1.5 17.8-2.2q8.7-0.8 9-1.8 0.2-1 23.2-3.2 23-2.3 48-5.3t33.5-3.5 10-0.8z" fill="#250908" stroke="#250908"/>
  <path d="m484.8 365.8l0.2-0.3 0.5-0.3 0.5-0.2 0.8 8q0.7 8 4 9 3.2 1 3.7 2.2 0.5 1.3 1.5 1.6 1 0.2 2.8 4.7 1.7 4.5 16.2 12.5t14 11-0.8 3.2q-0.2 0.3-0.4 0.6l-0.3 0.2-0.3 0.2-0.2 0.3-0.2 0.3-0.3 0.2-0.3 0.2-0.2 0.3v0.5l-0.5 0.2q-0.5 0.3-2 0.8t-12 1.5-51.5 24.3l-41 23.2-4.5-0.2-4.5-0.3h-1q-1 0-4 0t-3.2 0.7q-0.3 0.8-5 1.6-4.8 0.7-24.3 4.7t-28 5l-8.5 1 0.2-0.3 0.3-0.2 0.3-0.2 0.2-0.3 0.2-0.3 0.3-0.2 0.3-0.2 0.2-0.3-0.2-0.3-0.3-0.2-0.3-2-0.2-2h2l0.2-1.5q0.3-1.5 3-3 2.8-1.5 4.8-4.7l2-3.3 0.2-0.3 0.3-0.2 0.3-0.2 0.2-0.3 0.2-0.3 0.3-0.2 0.3-0.2 0.2-0.3 1-0.3 1-0.2v-4h-11v-0.5l1.5-0.5 1.5-0.5 1-0.5 1-0.5 1-0.5 1-0.5 0.2-0.3 0.3-0.2 0.3-0.2 0.2-0.3 29.8-13.7q29.7-13.8 36.4-17.6 6.8-3.7 12.8-6.2t26-12.5 23.8-12.3q3.7-2.2 3.7-5.2t0-10 1-8 1.3-1.2z" fill="#86676f" stroke="#86676f"/>
  <path d="m591 569.2l2-0.2v0.2q0 0.3-5.5 1.8l-5.5 1.5-0.2 0.3-0.3 0.2-0.3 0.2-0.2 0.3-1 0.5-1 0.5 0.2 0.3 0.3 0.2 0.3 0.2 0.2 0.3 9.2 0.7q9.3 0.8 15.6 3.6 6.2 2.7 12.2 4.7t13.5 4 11.5 2.5l4 0.5 0.2 0.3 0.3 0.2 0.3 0.2 0.2 0.3 2.5 0.5 2.5 0.5-0.2 0.3-0.3 0.2-0.3 0.2-0.2 0.3-1.5 0.5q-1.5 0.5-3 1l-1.5 0.5-1 0.3-1 0.2 0.2 1.5 0.3 1.5 0.3 0.2 0.2 0.3 2.8 0.7q2.7 0.8 4.4 3 1.8 2.3 2 2.6l0.3 0.2 0.3 0.2 0.2 0.3 0.5 0.3 0.5 0.2v0.5l0.2 0.3 0.3 0.2 0.3 0.2 0.2 0.3 1 0.3 1 0.2v3l-0.5-0.2-0.5-0.3-0.2-0.3-0.3-0.2-0.3-0.2-0.2-0.3-1-0.3-1-0.2-0.2-1-0.3-1-0.3-0.2-0.2-0.3-0.2-0.3-0.3-0.2-0.3 0.2-0.2 0.3-1 0.3q-1 0.2-1.2-0.8-0.3-1-5.6-3-5.2-2-5.4-1-0.3 1-1 0.2-0.8-0.7-4.8-0.7t-7.5-1.5-7.5-2-14.5-2-18.5-2.2l-8-0.8 0.5 1.2q0.5 1.3-1.5 1.6l-2 0.2-2.5-0.2q-2.5-0.3-13-2.3t-33-3.7l-22.5-1.8-0.2 1q-0.3 1-0.6 1h-0.2l-0.5-0.2q-0.5-0.3-3.5-0.8t-26.5 0.5-33.5 0-20.5-1-14 2-6 2.7q-2.5 0.8-2.5 1.8t-1 1-1-1.5-1-1.5-1 1-2 1.2q-2 0.3-4 3-2 2.8-7.5 3.6-5.5 0.7-5.7 0-0.3-0.8-2.6-0.6-2.2 0.3-2.7 1.6-0.5 1.2-1.5 1.2t-1.2-1q-0.3-1-1 0l-0.8 1h-1.2q-1.3 0-4.6 1.8-3.2 1.7-6.4 4.4-3.3 2.8-3.6 1.3-0.2-1.5-6.7 1.3-6.5 2.7-8.7 6-2.3 3.2-2.6 5-0.2 1.7-3 3.4-2.7 1.8-2.4 5.8 0.2 4-1 3.5-1.3-0.5-1.8 2.5t-1 4l-0.5 1-0.3 0.2-0.2 0.3-0.2 0.3-0.3 0.2-0.3 1-0.2 1-2 0.2q-2 0.3-3.5 0.3h-1.5l-0.2-0.3-0.3-0.2-0.3-0.2-0.2-0.3-1.5-0.5q-1.5-0.5-3.5-1.5t-3.8-3.7q-1.7-2.8-2.2-2.3t-2.8-0.3q-2.2-0.7-4.7-5-2.5-4.2-3.5-4.4-1-0.3-2.2-3l-1.3-2.8-0.3-3.5-0.2-3.5-0.2-1q-0.3-1 3.2-11t10.8-21.5l7.2-11.5 0.5-0.2 0.5-0.3 0.2-0.3 0.3-0.2 0.3-0.2 0.2-0.3 0.2-0.3 0.3-0.2 0.3-0.2q0.2-0.3 5.2-5l5-4.8 0.2-0.5 0.3-0.5h0.5l0.2-0.5q0.3-0.5 0.6-0.5h0.2v1.2q0 1.3 1.5 1.3h1.5l0.2-0.3 0.3-0.2 0.3-0.2 0.2-0.3 1-0.5 1-0.5 6.8-3.3q6.7-3.2 13-4.4 6.2-1.3 13.2-0.8t15.2 5.2q8.3 4.8 68 9 59.8 4.3 103.8 4.3t46-0.3zm-278.5 75.8l0.5-3h2l-0.2 2.5q-0.3 2.5-1.6 3-1.2 0.5-0.7-2.5z" fill="#643632" stroke="#643632"/>
  <path d="m770 350.5v1.5l-2-0.2q-2-0.3-7 0.2t-6 1.5-5.5 1.3q-4.5 0.2-4.5 1.7t-1.5 1.7q-1.5 0.3-2.5-0.2t-1.8 0.2q-0.7 0.8-2 0.6-1.2-0.3-1.2 2 0 2.2-2 1.7t-2.2 1q-0.3 1.5-4 3.7-3.8 2.3-4.3 3.6-0.5 1.2-11 4-10.5 2.7-11 4-0.5 1.2-2 1.2t-0.7 2.5q0.7 2.5-1 2.7-1.8 0.3-17.8 4.8t-17 5-7 0.5-13.5 3.5-11 6.2l-3.5 2.8 0.2-1.5q0.3-1.5-1.4-2.3l-1.8-0.7-0.2-0.3-0.3-0.2-0.3 0.2-0.2 0.3h-2l-0.2-0.3-0.3-0.2-0.3 1q-0.2 1 1.6 2 1.7 1 2 1.2l0.2 0.3h-3.5q-3.5 0-12-2t-14.5-7-6.8-10.3q-0.7-5.2-2.2-3.7l-1.5 1.5h-0.5l0.2-1.5 0.3-1.5 0.3-0.2 0.2-0.3 0.2-0.3 0.3-0.2 0.3-0.2 0.2-0.3 2.8-2.7q2.7-2.8 3-3.3l0.2-0.5 1-0.2 1-0.3 0.2-0.3 0.3-0.2 0.3-0.2 0.2-0.3 1-0.5 1-0.5 0.2-0.3 0.3-0.2 0.3-0.2 0.2-0.3 9-4q9-4 21.5-6t25-4.5 54-8 50.5-5 9 2.8q0 2.2 1.5 2.2t1.5 1.5zm-1.8 0.3q-0.2-0.3 0-0.6 0.3-0.2 0.3 0.3t-0.3 0.3zm-179 31q-0.2-0.3 0-0.6 0.3-0.2 0.3 0.3t-0.3 0.3z" fill="#4b1e19" stroke="#4b1e19"/>
  <path d="m994 585.8l1-0.3 7 1.5q7 1.5 9 2t3 0.2q1-0.2 1 0.8t6 1.8q6 0.7 9 2.2t5.5 2.2q2.5 0.8 3 0 0.5-0.7 1.3 0 0.7 0.8 1-0.7 0.2-1.5 4.7 0.3 4.5 1.7 6 2.2t4 0.5 10.5 6 11.5 9 4.5 3.5l1 0.5 0.2 0.3 0.3 0.2 0.3 0.2 0.2 0.3 1.5 0.5 1.5 0.5 0.2 0.3 0.3 0.2 0.3 0.2 0.2 0.3h0.5q0.5 0 1-0.3l0.5-0.2v0.2q0 0.3 0.5 0.6l0.5 0.2 4.2 13q4.3 13 3.8 26.5t-4 21.5-5.8 11.2q-2.2 3.3-3.2 3.6-1 0.2-2.2 9.7-1.3 9.5-4.6 12.3-3.2 2.7-8.7 4.2t-6.5 1.8l-1 0.2-2 0.2-2 0.3-1.5 0.3-1.5 0.2v-2h1q1 0 1.2-1 0.3-1-0.2-2l-0.5-1v-1l-0.5-1-0.5-1-0.3 0.2-0.2 0.3-0.2 0.3-0.3 0.2-0.3 0.2-0.2 0.3 0.2 0.3 0.3 0.2 0.3 0.2 0.2 0.3h-1q-1 0-7 1.5t-18 2.5l-12 1h-2l-1.5-0.5-1.5-0.5-0.2-0.3-0.3-0.2v-2l0.3-1 0.2-1h0.5l0.3-0.2 0.2-0.3 0.2-0.3 0.3-0.2 0.5-1 0.5-1 0.3-2 0.2-2h1q1 0 1-1.5t3.5-3.7q3.5-2.3 7.3-7.6 3.7-5.2 7.7-9.7t8-19 1.7-24.5q-2.2-10-3.2-10t-0.5-2-0.5-2.2q-1-0.3-2.2-3-1.3-2.8-2.6-3.3-1.2-0.5-1.4-1.5-0.3-1-3-3-2.8-2-2.8-3t-1-1.2q-1-0.3-5.2-4.6-4.3-4.2-6.6-5.4-2.2-1.3-3.7-3.6-1.5-2.2-8-5.2t-8-5.2l-1.5-2.3-1-0.5-1-0.5-2-0.5q-2-0.5-2.2-0.8-0.3-0.2 1.4-1.2l1.8-1 1-0.2zm62.2 14q-0.2-0.3 0-0.6 0.3-0.2 0.3 0.3t-0.3 0.3zm18 13q-0.2-0.3 0-0.6 0.3-0.2 0.3 0.3t-0.3 0.3z" fill="#766460" stroke="#766460"/>
  <path d="m777.5 641.2l0.5-0.2 7.5 3.8q7.5 3.7 9 4 1.5 0.2 1.5-0.8t2.5-1 3 1.2q0.5 1.3 2.5 1.6 2 0.2 2-0.8t5.5 0.2q5.5 1.3 8.3 3.6 2.7 2.2 3 1.2 0.2-1 4.7-0.2 4.5 0.7 9.5 2.2t10 2 11 2.5 9.2 3.3q3.3 1.2 4 2.4 0.8 1.3 2.8 1.6 2 0.2 3 2.7t5 3 4 1.5 1.8 1q1.7 0 7 1.8 5.2 1.7 8.2 0.7t4.2-1.3q1.3-0.2 2-1.4 0.8-1.3 12-5 11.3-3.8 12-5.3 0.8-1.5 2.3-1.5t2-2 4-3.5 4.5-4 7.8-2q6.7 0.5 10 1.3 3.2 0.7 11.4 0.4 8.3-0.2 8.6-2.2 0.2-2 4.2-4.8 4-2.7 8.5-2.2t8.3 4.2q3.7 3.8 4 9.3 0.2 5.5-0.8 5.5t-2 3.2q-1 3.3-3 3.6-2 0.2-3 1.4-1 1.3-2.5 1.6-1.5 0.2-1.7 2.2-0.3 2-1.6 2.5-1.2 0.5-3 3.5-1.7 3-1.4 5.5 0.2 2.5 2.4 4.5 2.3 2 2 4.2-0.2 2.3-5.2 5.8t-5.5 4.8q-0.5 1.2-2.3 2.2-1.7 1-2 0.8l-0.2-0.3h-2l-0.2 0.3-0.3 0.2-0.3 0.2-0.2 0.3-1 0.5q-1 0.5-1 0.8v0.2l-1.5 0.2-1.5 0.3v0.5l-0.5 0.2q-0.5 0.3-2 0.8t-14 1-13.3 1.2q-0.7 0.8-23.4 5-22.8 4.3-33.3 6.3t-28.5 3-20.5 1.5-32.5 0-37.5-2-15.5-3-25-3.5-30-3.5-15.5-2.5-17.5-2.3q-15-1.2-15-2.2t-3.5-0.5l-3.5 0.5v-0.5l-4-0.5q-4-0.5-7.5-2.5l-3.5-2h-1l-1-0.3-1-0.2-0.2-2-0.3-2v-2q0-2 0.7-1.2 0.8 0.7 3-1 2.3-1.8 1-3-1.2-1.3-0.4-3 0.7-1.8 3.7-3.3l3-1.5 0.3-1 0.2-1 0.5-0.2q0.5-0.3 1.5-1.6l1-1.2v-2q0-2 1.2-2.5 1.3-0.5 2 0.3 0.8 0.7 4.8-2 4-2.8 4-3.8t1.5-1.8q1.5-0.7 1.5-1v-0.2l0.5-0.2 0.5-0.3 0.2-0.3 0.3-0.2 0.3-1 0.2-1 2.5 0.2 2.5 0.3-0.2 0.3q-0.3 0.2-0.6 3.2l-0.2 3h4l0.2-1 0.3-1 0.3 0.2 0.2 0.3 0.2 0.3 0.3 0.2-0.7-3q-0.8-3 1-3.5 1.7-0.5 2-1.5 0.2-1 4.7-2.2 4.5-1.3 5.5-2.6 1-1.2 3.2-2.2 2.3-1 2.6-2 0.2-1 9.2-4.8 9-3.7 20.5-3.2t14 1l2.5 0.5 1.5 0.3 1.5 0.2-0.2-1q-0.3-1-1.6-1.8-1.2-0.7-0.7-2l0.5-1.2h2v1q0 1 3.5 1t3.5-1 1-1 3 2.2q2 2.3 6 3 4 0.8 4.5-0.4 0.5-1.3 4 0.2t6.5 1 4-0.5h1l1.5-0.5 1.5-0.5-0.2-0.3-0.3-0.2-0.3-0.2q-0.2-0.3-1.7-0.6-1.5-0.2-1.3-2.7l0.3-2.5 0.3-1.8q0.2-1.7 2.2-0.2t5 1.5 3.5-0.3zm-6.3 5.6q-0.2-0.3 0-0.6 0.3-0.2 0.3 0.3v0.5l-0.3-0.2z" fill="#422521" stroke="#422521"/>
  <path d="m770.2 429l-0.2-1h1q1 0 2 3t3.5 3.8q2.5 0.7 3.5 0.7h1l0.2 0.3 0.3 0.2 0.3 0.2 0.2 0.3 0.2 0.3 0.3 0.2v2l-0.3 0.2-0.2 0.3-1.5 0.5q-1.5 0.5-1.3 0.8 0.3 0.2-2 3l-2.2 2.7-2 0.3-2 0.2v2h6l0.2-1 0.3-1 0.3 0.2 0.2 0.3h9.5q9.5 0 38.5 0t33 1 5 1.5l1 0.5 0.2 0.3 0.3 0.2 0.3 0.2 0.2 0.3 0.2 0.3 0.3 0.2-0.7 2.2q-0.8 2.3-1 2.6-0.3 0.2-0.8 1.2l-0.5 1-0.3 0.2-0.2 0.3-0.2 0.3q-0.3 0.2-0.6 0.7l-0.2 0.5-0.5 0.2q-0.5 0.3-0.5 0.6v0.2l-0.5 0.2q-0.5 0.3-5 0.8l-4.5 0.5-1 0.5-1 0.5-0.2 0.3-0.3 0.2-0.3 0.2-0.2 0.3 0.2 0.3 0.3 0.2v2l-0.3 0.2-0.2 0.3 1.2 0.7q1.3 0.8 1.6 1.3l0.2 0.5-1.5-0.2q-1.5-0.3-11 0.2t-34.5 3.5-48 5.3q-23 2.2-23.2 3.2-0.3 1-9 1.8-8.8 0.7-17.8 2.2t-13 1.5-3.5-2.3q0.5-2.2-7.5-0.4-8 1.7-26 6.7t-22.5 5-14.5-0.7l-10-0.8-0.5-0.2q-0.5-0.3-3.5-4l-3-3.8-0.2-1-0.3-1-0.3-0.2-0.2-0.3v-0.5l0.2-3.5 0.3-3.5 0.3-1 0.2-1 7-1.8q7-1.7 32.5-4.7t64-9.5 40-7l1.5-0.5 1.5-0.5 1.5-0.5 1-0.5 1-0.5 0.2-0.3 0.3-0.2 0.3-0.2 0.2-0.3-3.5-0.3q-3.5-0.2-3.7-1.2-0.3-1-3-2.2l-2.8-1.3-1.5-0.5-1.5-0.5-0.2-0.3-0.3-0.2-0.3-0.2-0.2-0.3-0.2-0.3-0.3-0.2-0.3-0.2-0.2-0.3 0.5-0.3 0.5-0.2 1-0.2 1-0.3h2l0.2 0.3 0.3 0.2 0.3-1.5 0.2-1.5 1 0.2 1 0.3 1 1.5q1 1.5 4.5 2t6.5-0.2q3-0.8 3-1.8t3.5-1.2q3.5-0.3 5-0.6 1.5-0.2 1.7-1.7l0.3-1.5 0.5-1.5 0.5-1.5 0.3-0.2 0.2-0.3 0.2-0.3 0.3-0.2v-0.5q0-0.5-0.3-1.5z" fill="#3d1412" stroke="#3d1412"/>
  <path d="m728 174.2l1-0.2-0.2 0.5-0.3 0.5-0.3 0.2-0.2 0.3-0.2 0.3-0.3 0.2-0.3 0.2-0.2 0.3 2.2 11.3q2.3 11.2 7.3 34.2t8 40 4.5 24 3.2 16.5q1.8 9.5 35.8 8.7 34-0.7 44.5 1.3t11.5 2.5l1 0.5 1 0.5 1 0.5 0.2 0.3 0.3 0.2 0.3 0.2 0.2 0.3 0.2 0.3 0.3 0.2 0.3 0.2 0.2 0.3 0.5 0.3 0.5 0.2v0.5l0.2 0.3 0.3 0.2v4h-0.5v-0.5l-1-0.5-1-0.5-0.2-0.3-0.3-0.2-0.3-0.2-0.2-0.3-1.5-0.3-1.5-0.2-0.2-1q-0.3-1-4.6-1.8-4.2-0.7-22.2-0.7t-45 2-38.8 1.3q-11.7-0.8-19-0.3l-7.2 0.5v-0.5l0.2-0.3 0.3-0.2v-0.5q0-0.5-1.5-7t-2.8-15.5q-1.2-9-2.2-9t-1-5-1-5-1.2-5.5q-0.3-5.5-1-6-0.8-0.5-2-7-1.3-6.5-3.8-20t-4.5-31.5-2.7-18.5q-0.8-0.5-2-3l-1.3-2.5-0.3-0.2-0.2-0.3-1-0.3-1-0.2v-0.5l2-0.5 2-0.5 15-3.5q15-3.5 22.5-3.5t8.5-0.3z" fill="#684826" stroke="#684826"/>
  <path d="m500 349.2l1-0.2v2q0 2-4 3.8-4 1.7-7.5 6l-3.5 4.2-0.5 0.2-0.5 0.3-0.2 0.3q-0.3 0.2-1.3 1.2t-1 8 0 10-3.7 5.2q-3.8 2.3-23.8 12.3t-26 12.5-12.8 6.2q-6.7 3.8-36.4 17.6l-29.8 13.7-0.2 0.3-0.3 0.2-0.3 0.2-0.2 0.3-1 0.5-1 0.5-1 0.5-1 0.5-1.5 0.5-1.5 0.5v0.5h-0.2q-0.3 0-22 9.8-21.8 9.7-50.8 23.2t-40.5 19l-11.5 5.5-3.5 0.3-3.5 0.2 0.2-2.5 0.3-2.5 0.3-0.2 0.2-0.3 0.2-0.3 0.3-0.2 0.3-1.5 0.2-1.5 4-5.2q4-5.3 18-13.8t56.5-31.5 82.5-40.5 72.8-31.8q32.7-14.2 37-20 4.2-5.7 10.2-9.7t7-4.3z" fill="#673030" stroke="#673030"/>
  <path d="m577.5 596.2l-0.5-1.2 8 0.8q8 0.7 18.5 2.2t12 2.2q1.5 0.8 1.5-0.7t6 1.3q6 2.7 10 2.7t4.8 0.7q0.7 0.8 1-0.2 0.2-1 5.4 1 5.3 2 5.6 3 0.2 1 1.2 0.8l1-0.3 0.2-0.3 0.3-0.2 0.3 0.2 0.2 0.3 0.2 0.3 0.3 0.2 0.3 1 0.2 1h3l0.2 1q0.3 1 0.6 1h0.2v0.5l2.8 0.7q2.7 0.8 3 2.3 0.2 1.5 1.2 1.7 1 0.3 0 0.6-1 0.2 0.2 2.7 1.3 2.5 1.6 4l0.2 1.5 2.2-2q2.3-2 2.6-2.2l0.2-0.3 0.2-0.3 0.3-0.2 0.3 0.2 0.2 0.3 0.2 0.3 0.3 0.2-0.3 12.2q-0.2 12.3-1 11.6-0.7-0.8-2 1.4-1.2 2.3-2.7 2-1.5-0.2-2.5 2.6-1 2.7-4 3.4-3 0.8-4 4.6-1 3.7-2 3.7t-2 0.5l-1 0.5-0.2 0.3-0.3 0.2-0.3 2-0.2 2v0.2q0 0.3-1.5 1-1.5 0.8-1.5 1.8t-4 3.8q-4 2.7-4.8 2-0.7-0.8-1.4 2.2-0.8 3-2.8 4l-2 1-0.2-0.5q-0.3-0.5-0.8-1l-0.5-0.5-0.3 0.2-0.2 0.3-0.2 0.3-0.3 0.2-0.3-1-0.2-1-1 0.2q-1 0.3-2.5 2.6-1.5 2.2-2.5 2.2t-2-1.8q-1-1.7-1.5-1-0.5 0.8-5.5 1.6-5 0.7-6 1.2t-2.2-0.8q-1.3-1.2-3-1-1.8 0.3-3.3 0.8t-1.5-2.2q0-2.8-1-3-1-0.3-0.8-2l0.3-1.8 0.3-0.2 0.2-0.3h-1q-1 0-2.2 1.7l-1.3 1.8-0.3-0.2-0.2-0.3-0.2-0.3-0.3-0.2v-1q0-1 0-4v-3l-0.3 1.5q-0.2 1.5-2.2 1.3l-2-0.3 0.2-0.3 0.3-0.2 0.3-0.2 0.2-0.3 0.2-0.3q0.3-0.2-2-0.7l-2.2-0.5v-0.5l1.5-0.5 1.5-0.5 0.2-0.3 0.3-0.2 0.3-0.2 0.2-0.3 0.2-0.3q0.3-0.2 2.6-0.7 2.2-0.5 2.4 0.5 0.3 1 1.3-1.5t0.3-3q-0.8-0.5-0.8-2t1-1.5 0.8-1.5q-0.3-1.5 0.4-3.5 0.8-2 3.3-3t2.7-3q0.3-2 3.3-5l3-3 0.3-0.2 0.2-0.3 0.2-0.3 0.3-0.2 0.3-0.2 0.2-0.3 0.2-0.3 0.3-0.2 0.3-0.2 0.2-0.3 0.2-0.3 0.3-0.2-0.3 2.8q-0.2 2.7 0 3l0.3 0.2 0.3 0.2 0.2 0.3 0.2 0.3 0.3 0.2 0.5-1 0.5-1 0.3-0.2 0.2-0.3 1-0.3 1-0.2 0.2-1 0.3-1 0.5-1.5 0.5-1.5 0.3-0.2 0.2-0.3-1-0.3q-1-0.2-0.8-3.7 0.3-3.5-1-5.3-1.2-1.7-2-5.4-0.7-3.8-2-4.3-1.2-0.5-1.7-3t-5-2.7q-4.5-0.3-5.5-2.6-1-2.2-3.5-1.4-2.5 0.7-5.3-2.6-2.7-3.2-8-4.4l-5.2-1.3-0.2-0.3-0.3-0.2-0.3-0.2-0.2-0.3-1.5-0.5q-1.5-0.5-1.5-0.8v-0.2l2-0.2q2-0.3 1.5-1.6zm56.7 86q0.3-0.2 0.6 0 0.2 0.3-0.3 0.3t-0.3-0.3zm-16 1q0.3-0.2 0.6 0 0.2 0.3-0.3 0.3t-0.3-0.3z" fill="#5f3632" stroke="#5f3632"/>
  <path d="m823 381.2v-0.2h1l6.8 4q6.7 4 7.7 8t2.3 4.5q1.2 0.5 1.2 1.5t12 6.8q12 5.7 15.2 11 3.3 5.2 3.3 19.2t-4.7 19.8q-4.8 5.7-5.8 6l-1 0.2v-2l1-0.2 1-0.3 0.2-0.3 0.3-0.2 0.5-1q0.5-1 0.8-1.2 0.2-0.3 1-2.6l0.7-2.2-0.3-0.2-0.2-0.3-0.2-0.3-0.3-0.2-0.3-0.2-0.2-0.3-1-0.5q-1-0.5-5-1.5t-33-1-38.5 0h-9.5l-0.2-0.3-0.3-0.2-0.3 1-0.2 1h-6v-2l2-0.2 2-0.3 2.2-2.7q2.3-2.8 2-3-0.2-0.3 1.3-0.8l1.5-0.5 0.2-0.3 0.3-0.2v-2l-0.3-0.2-0.2-0.3-0.2-0.3-0.3-0.2-0.3-0.2-0.2-0.3h-1q-1 0-3.5-0.7-2.5-0.8-4-3.3l-1.5-2.5-0.2-0.5q-0.3-0.5-0.6-0.5h-0.2l-0.2-0.5q-0.3-0.5-1.6-2.3-1.2-1.7-4.2-2-3-0.2-4.5-2l-1.5-1.7-0.2-0.3-0.3-0.2-0.3-0.2-0.2-0.3-0.2-0.3-0.3-0.2-0.5-1-0.5-1v-3l0.3-0.2 0.2-0.3 0.2-0.3 0.3-0.2 0.3-0.2 0.2-0.3 0.2-0.3 0.3-0.2 0.3-0.2 0.2-0.3 5.5-2.5q5.5-2.5 25.5-5.5t26.5-3.5l6.5-0.5 1-0.5 1-0.5-0.2-0.3-0.3-0.2-0.3-0.2-0.2-0.3-1-0.5q-1-0.5-2-1t-1.2-2.8q-0.3-2.2 0.4-2.7 0.8-0.5 0.6-2.5l-0.3-2-0.3-0.2-0.2-0.3 3.5-0.5q3.5-0.5 2-1.5t-1.5-1.3z" fill="#6c4540" stroke="#6c4540"/>
  <path d="m843.8 320l0.2 1 1.5 0.2 1.5 0.3 0.2 0.3 0.3 0.2 0.3 0.2 0.2 0.3 1 0.5 1 0.5v0.5l-1.5 0.2q-1.5 0.3 3 3 4.5 2.8 4.3 13.8-0.3 11-3.6 13-3.2 2-3.4 3.5-0.3 1.5-2.6 3-2.2 1.5-2.2 2.5t-1.5 1.2q-1.5 0.3-2 1.6-0.5 1.2-6.5 3.7t-6 1.5-1.8-1h-1.7l-0.3-0.2-0.2-0.3h-2l-0.2 0.3-0.3 0.2v8l0.3 1 0.2 1 1 0.2 1 0.3v0.5h-1l-1-0.2-1-0.3-0.2-0.3-0.3-0.2-0.3-0.2-0.2-0.3-0.2-0.3-0.3-0.2-0.3-0.2-0.2-0.3-1-0.5q-1-0.5-8-2.5t-23.5-2.5l-16.5-0.5-2-0.5-2-0.5 0.2-0.3 0.3-0.2 0.5-2.5 0.5-2.5 0.3-0.2 0.2-0.3 0.2-0.3 0.3-0.2 0.3-0.2 0.2-0.3 0.5-1.3q0.5-1.2 2-1.2t1.5-1-1-1.2q-1-0.3 0.5-0.8t2.5-0.5h1l-0.2-0.3-0.3-0.2-0.3-0.2q-0.2-0.3 0.3-0.8l0.5-0.5 0.2-0.3 0.3-0.2 0.3-0.2 0.2-0.3-1-0.5q-1-0.5-3.5-1.8l-2.5-1.2v-1.5q0-1.5-1.5-1.5t-1.5-2.2q0-2.3-9-2.8t-50.5 5-54 8-25 4.5-21.5 6l-9 4-0.2 0.3-0.3 0.2-0.3 0.2-0.2 0.3-1 0.5-1 0.5-0.2 0.3-0.3 0.2-0.3 0.2-0.2 0.3-1 0.3-1 0.2-0.5-0.2-0.5-0.3-0.2-0.3-0.3-0.2-0.3-0.2-0.2-0.3 0.2-0.3 0.3-0.2 0.5-1.5 0.5-1.5 0.3-1 0.2-1 1-0.2 1-0.3 4-4q4-4 1.5-4.5t-0.3-1.8q2.3-1.2 2.6-2.2 0.2-1 4.2-2.2 4-1.3 10-2.8t7-2 2.5-1l1.5-0.5 1.5-0.5 1.5-0.5 1-0.5 1-0.5 1.5-0.5 1.5-0.5v-0.5l15.5-4.8q15.5-4.7 15-6-0.5-1.2 19-6 19.5-4.7 21-5l1.5-0.2 7.2-0.5q7.3-0.5 19 0.3 11.8 0.7 38.8-1.3t45-2 22.2 0.7q4.3 0.8 4.6 1.8z" fill="#653d37" stroke="#653d37"/>
  <path d="m968.5 532.2l2.5-0.2h1.5q1.5 0 2.7 2.5 1.3 2.5 3 6 1.8 3.5 0.3 3.5t-1.5 1-1.5 1.2q-1.5 0.3-0.7 1 0.7 0.8-0.6 2.8-1.2 2-12.7 5.2-11.5 3.3-47 8l-35.5 4.8-6.5 0.2q-6.5 0.3-25 3.8l-18.5 3.5-1 0.3-1 0.2v-0.5l0.2-0.3 0.3-0.2 1.5-1.5q1.5-1.5 1.8-2.5l0.2-1h-2q-2 0-2 1t-1 1-0.5-1.2q0.5-1.3-32.5-2l-33-0.8v-0.5l-3.5-0.3-3.5-0.2v-2l3 0.2 3 0.3h7.5q7.5 0 11.7-1.3 4.3-1.2 4.6-2.7 0.2-1.5 2.2-1.5h2l0.2-1 0.3-1 0.3-0.2 0.2-0.3 0.2-0.3 0.3-0.2 0.3-0.2 0.2-0.3 0.2-0.3 0.3-0.2 0.3-0.2 0.2-0.3 0.2-0.3 0.3-0.2 0.3 0.2 0.2 0.3 1 0.3 1 0.2v-2l-2.5-0.2-2.5-0.3-3.5-0.5q-3.5-0.5-12.5-1l-9-0.5-1-0.5-1-0.5v-0.5l28.5-1.2q28.5-1.3 35-1.8l6.5-0.5 4-0.5 4-0.5-4.5-0.5-4.5-0.5v-0.5l27.5-0.2q27.5-0.3 61-4.3t40.5-5.5 9.5-1.8z" fill="#553a34" stroke="#553a34"/>
  <path d="m584 672h1l2.2 0.5q2.3 0.5 2 0.7l-0.2 0.3-0.2 0.3-0.3 0.2-0.3 0.2-0.2 0.3 2 0.3q2 0.2 2.2-1.3l0.3-1.5v3q0 3 0 4v1l0.3 0.2 0.2 0.3 0.2 0.3 0.3 0.2 1.3-1.8q1.2-1.7 2.2-1.7h1l-0.2 0.3-0.3 0.2-0.3 1.8q-0.2 1.7 0.8 2 1 0.2 1 3 0 2.7 1.5 2.2t3.3-0.8q1.7-0.2 3 1 1.2 1.3 2.2 0.8t5-1.2q4-0.8 4.5-2 0.5-1.3 2.5 1 2 2.2 3 2.2t2.5-2.2q1.5-2.3 2.5-2.6l1-0.2 0.2 1 0.3 1 0.3-0.2 0.2-0.3 0.2-0.3 0.3-0.2 0.3-0.2 0.2-0.3 0.2-0.3 0.3-0.2 0.3-0.2 0.2-0.3h3v0.5h-0.5l-0.3 0.2-0.2 0.3-0.2 0.3-0.3 0.2-0.3 0.2-0.2 0.3-0.2 0.3-0.3 0.2-0.3 0.5-0.2 0.5-0.2 1-0.3 1-3 1.5q-3 1.5-3.7 3.3-0.8 1.7 0.4 3 1.3 1.2-1 3-2.2 1.7-3 1-0.7-0.8-0.7 1.2v2l0.3 2 0.2 2 1 0.2 1 0.3h1l3.5 2q3.5 2 7.5 2.5l4 0.5v1l-1 0.5-1 0.5-0.2 0.3-0.3 0.2-0.3 0.2-0.2 0.3-5.5 0.5-5.5 0.5-0.2 0.3-0.3 0.2-0.3 0.2-0.2 0.3 3 0.3 3 0.2v2l-1 0.2-1 0.3h-2q-2 0-10.5 0.5t-6.5 2-2 2-14.5 2.5-8.5 2.5-2 0.5h-4l-0.2-0.3-0.3-0.2-0.3 0.2-0.2 0.3-0.5 0.3-0.5 0.2-0.5-0.2q-0.5-0.3-9-1.8t-21-4.5-16-3-13-3.3q-9.5-3.2-9.5-4.2t-1-1h-1l-0.2-1.5-0.3-1.5-0.3-0.2-0.2-0.3-0.2-0.3-0.3-0.2v-5l0.3-0.2 0.2-0.3 3.5-2q3.5-2 9.3-3.7 5.7-1.8 6-2l0.2-0.3 1-0.5 1-0.5 1-0.5 1-0.5 1-0.3 1-0.2h3.8q3.7 0 5.4-1.5 1.8-1.5 1.8-2.5t3.2-0.5q3.3 0.5 8.8-3.5t8.2-6.2q2.8-2.3 7.8-2.8t9.5-3.2q4.5-2.8 4.5-1.8t1 1z" fill="#5e3431" stroke="#5e3431"/>
  <path d="m595 211.2l1-0.2-1.8 2.5q-1.7 2.5 10.8 56t13.8 63q1.2 9.5 5.2 9.7 4 0.3 5.5 0.3h1.5l0.2 0.3 0.3 0.2 0.3-0.2 0.2-0.3h3v1l-1.5 0.5-1.5 0.5-1 0.5-1 0.5-1.5 0.5-1.5 0.5-1.5 0.5q-1.5 0.5-2.5 1t-11 3.2q-10 2.8-10.2 3.8-0.3 1-2.6 2.2-2.2 1.3 0.3 1.8t-1.5 4.5l-4 4-1 0.3-1 0.2-0.2 1-0.3 1-0.5 1.5-0.5 1.5-0.3 0.2-0.2 0.3 0.2 0.3 0.3 0.2 0.3 0.2 0.2 0.3 0.5 0.3 0.5 0.2-0.2 0.5q-0.3 0.5-3 4l-2.8 3.5-0.5 0.2-0.5 0.3v0.5h-0.5l-0.3 1-0.2 1v4h-0.5l-0.5-3-0.5-3v-2l0.5-3q0.5-3 2.5-6t0.3-19.5q-1.8-16.5-3.8-16.7-2-0.3-11.5 0.2l-9.5 0.5-0.2-0.3-0.3-0.2-0.3-0.2-0.2-0.3-0.2-0.3-0.3-0.2-0.5-1-0.5-1v-3q0-3 0.5-5.5t2.2-5.5q1.8-3 8.3-7.2 6.5-4.3 7-6 0.5-1.8-1.5-1.8h-2v-0.2q0-0.3 3-2.3t-2-32.5-6.2-28.8q-1.3 1.8-2.8-0.2l-1.5-2-0.5-2q-0.5-2-0.8-3.5l-0.2-1.5h0.5l0.5-1 0.5-1 0.3-0.2 0.2-0.3 0.2-0.3 0.3-0.2 0.7-2.5q0.8-2.5 4.6-4.5 3.7-2 4.2-2.5t1.2 0.7q0.8 1.3 3.8 0.3t9-5 7-4.3z" fill="#c2a475" stroke="#c2a475"/>
  <path d="m641 68l2-0.5h2l3 0.5 3 0.5-0.2 0.3-0.3 0.2-0.3 0.2-0.2 0.3-0.2 0.3-0.3 0.2-0.3 0.2-0.2 0.3-0.2 0.3-0.3 0.2-0.3 0.2-0.2 0.3-0.2 0.3-0.3 0.2-0.3 0.2-0.2 0.3-0.2 0.3-0.3 0.2-0.5 1.5q-0.5 1.5-5 6.5t-5.5 6.5l-1 1.5-0.5 1-0.5 1-0.5 1-0.5 1-0.3 0.2-0.2 0.3-0.2 0.3-0.3 0.2-0.3 0.2-0.2 0.3 0.2 0.3 0.3 0.2 0.3 0.2 0.2 0.3 2 0.5 2 0.5h2l30.5-2.5q30.5-2.5 34-3.5t8.5-1 8-1.5 4-1.2q1 0.2 1.2-1.3 0.3-1.5 0.6-1.5h0.2l0.2 0.5q0.3 0.5 0.3 1v2q0 1.5 0.5 2t-0.2 1q-0.8 0.5-0.8 2t-1 1.5h-1v2l1 0.2 1 0.3 13.5 2q13.5 2 13.7 2.3l0.3 0.2 0.3 0.2 0.2 0.3 0.2 0.3 0.3 0.2 0.3 0.2 0.2 0.3 1 0.5 1 0.5 1 0.3 1 0.2 0.2 1.5 0.3 1.5v1l-0.3 0.2-0.2 0.3-1.5 0.3-1.5 0.2v2l-4-0.2q-4-0.3-9.5-0.6l-5.5-0.2-1 0.2q-1 0.3-1 0.6v0.2l-5 0.2q-5 0.3-16.5-0.2t-27 3.8q-15.5 4.2-15.5 5.2t1.2 1.5q1.3 0.5 0.6 2.7-0.8 2.3-4.3 3-3.5 0.8-3.5 1.8t-2 1.2q-2 0.3-25 9.3t-27.8 13.3q-4.7 4.2-7.4 5.7-2.8 1.5-3 2.5-0.3 1-5.6 5.5l-5.2 4.5v-2l-1.5 0.2-1.5 0.3-0.2 0.3-0.3 0.2-0.5 1q-0.5 1-1.2 1.8-0.8 0.7-3.8 0-3-0.8-3.5 0.4-0.5 1.3-3 0.6l-2.5-0.8-1-3q-1-3-2-3t-1.2-2.5q-0.3-2.5 3.4-9.7 3.8-7.3 7-10.6 3.3-3.2 4-4.4 0.8-1.3 2.8-3 2-1.8 2-2.8t2-1.5 4.5-3.3q2.5-2.7 4.5-3.7t3.8-2.3q1.7-1.2 2.4-3 0.8-1.7 1-2l0.3-0.2 0.3-0.2 0.2-0.3 0.2-0.3 0.3-0.2 0.3-0.2 0.2-0.3 0.2-0.3 0.3-0.2 0.3-0.2 0.2-0.3 0.2-0.3 0.3-0.2 0.3 0.2 0.2 0.3 0.2 0.3 0.3 0.2v-3l-0.3-1-0.2-1-3 0.2-3 0.3-1 0.5q-1 0.5-3-0.5t-2.5-0.3q-0.5 0.8-5.3 2.8-4.7 2-11 2.8-6.2 0.7-13 2l-6.7 1.2-0.3-0.2-0.2-0.3-0.2-0.3-0.3-0.2-0.5 1.5-0.5 1.5-0.3 0.2-0.2 0.3-0.2 0.3-0.3 0.2-0.5-2.5-0.5-2.5h-0.5v-0.5l0.2-0.3 0.3-0.2 0.5-1 0.5-1 0.3-0.2 0.2-0.3 5.8-7.3q5.7-7.2 16.7-17.7t12.3-9.7q1.2 0.7 3.7-0.8t3.5-1.8l1-0.2v1q0 1-1 1.2l-1 0.3 0.5 1.3q0.5 1.2 2.5 1l2-0.3 1-0.5 1-0.5 15-5.5q15-5.5 17.5-6t4.5-1zm-42.8 42.8q-0.2-0.3 0-0.6 0.3-0.2 0.3 0.3t-0.3 0.3z" fill="#6c3836" stroke="#6c3836"/>
  <path d="m783 150.8l2 0.2v2l3 0.2 3 0.3 1 0.5 1 0.5 0.5 0.3 0.5 0.2h0.5l0.3 0.2 0.2 0.3 10.5 4q10.5 4 14.7 8.3 4.3 4.2 4.8 6.2l0.5 2 0.5 1 0.5 1 0.5 1.5 0.5 1.5 0.3 1 0.2 1h-0.5l-0.5 1-0.5 1-0.3 0.2-0.2 0.3h-3l-0.2-0.3-0.3-0.2-0.3-0.2-0.2-0.3-1-0.5q-1-0.5-10-4t-27.5-5.5-36.5-1.3l-18 0.8-1 0.2q-1 0.3-8.5 0.3t-22.5 3.5l-15 3.5-2 0.5-2 0.5v0.5l-2.5 0.2q-2.5 0.3-25 6.8t-38.5 13.8l-16 7.2-1 0.2q-1 0.3-5.5 3.3t-10 5.7q-5.5 2.8-5.3 0.8 0.3-2-0.2-1.5t-4.2 2.5q-3.8 2-4.6 4.5l-0.7 2.5-0.3 0.2-0.2 0.3-0.2 0.3-0.3 0.2-0.5 1-0.5 1h-0.5l-0.2-0.5-0.3-0.5-0.5-2-0.5-2-0.3-0.2-0.2-0.3 0.2-0.3 0.3-0.2 1.5-5.5q1.5-5.5 6.8-12.3 5.2-6.7 8.7-9.7t4.5-3.5l1-0.5 0.2-0.3 0.3-0.2 0.3-0.5 0.2-0.5h0.5l0.3-0.2 0.2-0.3 0.2-0.3 0.3-0.2 0.3-0.2 0.2-0.3 0.5-0.3 0.5-0.2v0.5l1 0.3 1 0.2h0.5l0.3-0.5 0.2-0.5h1.5l16.3-7.8q16.2-7.7 17.2-8 1-0.2 0.5-2.7t13-8.3q13.5-5.7 38-10.2t47-6 39.5 0.5 17.5 2 2.5 0.3z" fill="#663d36" stroke="#663d36"/>
  <path d="m769 351.8l1 0.2 2.5 1.2q2.5 1.3 3.5 1.8l1 0.5-0.2 0.3-0.3 0.2-0.3 0.2-0.2 0.3-0.5 0.5q-0.5 0.5-0.3 0.8l0.3 0.2 0.3 0.2 0.2 0.3h-1q-1 0-2.5 0.5t-0.5 0.8q1 0.2 1 1.2t-1.5 1-2 1.2l-0.5 1.3-0.2 0.3-0.3 0.2-0.3 0.2-0.2 0.3-0.2 0.3-0.3 0.2-0.5 2.5-0.5 2.5-0.3 0.2-0.2 0.3 2 0.5 2 0.5 16.5 0.5q16.5 0.5 23.5 2.5t8 2.5l1 0.5 0.2 0.3 0.3 0.2 0.3 0.2 0.2 0.3 0.2 0.3 0.3 0.2 0.3 0.2 0.2 0.3 1 0.3 1 0.2v0.2q0 0.3 1.5 1.3t-2 1.5l-3.5 0.5 0.2 0.3 0.3 0.2 0.3 2q0.2 2-0.6 2.5-0.7 0.5-0.4 2.7 0.2 2.3 1.2 2.8t2 1l1 0.5 0.2 0.3 0.3 0.2 0.3 0.2 0.2 0.3-1 0.5-1 0.5-6.5 0.5q-6.5 0.5-26.5 3.5t-25.5 5.5l-5.5 2.5-0.2 0.3-0.3 0.2-0.3 0.2-0.2 0.3-0.2 0.3-0.3 0.2-0.3 0.2-0.2 0.3-0.2 0.3-0.3 0.2v3l0.5 1 0.5 1 0.3 0.2 0.2 0.3 0.2 0.3 0.3 0.2 0.3 0.2 0.2 0.3 1.5 1.7q1.5 1.8 4.5 2 3 0.3 4.2 2 1.3 1.8 1.6 2.3l0.2 0.5v0.5l0.5 0.3 0.5 0.2-0.2 1-0.3 1-0.3 0.2-0.2 0.3-0.2 0.3-0.3 0.2-0.5 1.5-0.5 1.5-0.3 1.5q-0.2 1.5-1.7 1.7-1.5 0.3-5 0.6-3.5 0.2-3.5 1.2t-3 1.8q-3 0.7-6.5 0.2t-4.5-2l-1-1.5-1-0.3-1-0.2-0.2 1.5-0.3 1.5-0.3-0.2-0.2-0.3h-2l-1 0.3-1 0.2-0.2-0.5q-0.3-0.5-2.3-2.5t-3-6l-1-4-0.5-1-0.5-1-0.5 1q-0.5 1-2.2 1.8l-1.8 0.7-1-0.5-1-0.5 0.2-0.3 0.3-0.2 0.3-0.2 0.2-0.3-1-0.5-1-0.5 1-0.5q1-0.5 2-3.8l1-3.2 1-0.2 1-0.3h-13.5q-13.5 0-29.5 3l-16 3-1.5-0.5-1.5-0.5 0.2-0.3 0.3-0.2 0.3-0.2 0.2-0.3-1.5-0.5-1.5-0.5 0.2-0.3 0.3-0.2 0.3-0.2 0.2-0.3 1.5-0.5 1.5-0.5 1-0.3 1-0.2v-1.5q0-1.5 3.5-2.3 3.5-0.7 5.5-1.2l2-0.5 0.2-0.3 0.3-0.2 0.3-1 0.2-1h-2v-2l-1.5-0.2-1.5-0.3-0.2-0.3-0.3-0.2-0.3-0.2-0.2-0.3-0.2-0.3-0.3-0.2-0.3-1.5-0.2-1.5-1.5 0.2q-1.5 0.3-5 0.8t-11 2.5-10.3 3.7q-2.7 1.8-8.4 4.6l-5.8 2.7-2 0.5-2 0.5-1 0.3-1 0.2v-2h0.5l0.3-0.5 0.2-0.5v-0.5l0.2-0.3 0.3-0.2 0.3-4 0.2-4 3.5-2.8q3.5-2.7 11-6.2t13.5-3.5 7-0.5 17-5 17.8-4.8q1.7-0.2 1-2.7-0.8-2.5 0.7-2.5t2-1.2q0.5-1.3 11-4 10.5-2.8 11-4 0.5-1.3 4.3-3.6 3.7-2.2 4-3.7 0.2-1.5 2.2-3.3 2-1.7 3.2-1.4 1.3 0.2 2-0.6 0.8-0.7 1.8-0.2t2.5 0.2q1.5-0.2 1.5-1.7t4.5-1.7q4.5-0.3 5.5-1.3t7.2-1.7q6.3-0.8 6-0.6-0.2 0.3 0.8 0.6z" fill="#4d1e1c" stroke="#4d1e1c"/>
  <path d="m674.2 406.8l0.3 0.2 0.3 0.2 0.2 0.3 0.2 0.3 0.3 0.2 0.3 0.2 0.2 0.3 1.5 0.3 1.5 0.2v2h2l-0.2 1-0.3 1-0.3 0.2-0.2 0.3-2 0.5q-2 0.5-5.5 1.2-3.5 0.8-3.5 2.3v1.5l-1 0.2-1 0.3-1.5 0.5-1.5 0.5-0.2 0.3-0.3 0.2-0.3 0.2-0.2 0.3 1.5 0.5 1.5 0.5-0.2 0.3-0.3 0.2-0.3 0.2-0.2 0.3 1.5 0.5 1.5 0.5 16-3q16-3 29.5-3h13.5l-1 0.3-1 0.2-1 3.2q-1 3.3-2 3.8l-1 0.5 1 0.5 1 0.5-0.2 0.3-0.3 0.2-0.3 0.2-0.2 0.3 1 0.5 1 0.5 1.8-0.7q1.7-0.8 2.2-1.8l0.5-1 0.5 1 0.5 1 0.3-0.2 0.2-0.3 1-0.3 1-0.2-0.5 4.2q-0.5 4.3 1.7 6.6 2.3 2.2 2.6 2.7l0.2 0.5-0.5 0.2-0.5 0.3 0.2 0.3 0.3 0.2 0.3 0.2 0.2 0.3 0.2 0.3 0.3 0.2 0.3 0.2 0.2 0.3 1.5 0.5 1.5 0.5 2.5 1q2.5 1 4 1.3l1.5 0.2v2l2.5 0.2 2.5 0.3-0.2 0.3-0.3 0.2-0.3 0.2-0.2 0.3-1 0.5-1 0.5-1.5 0.5-1.5 0.5-1.5 0.5q-1.5 0.5-40 7t-64 9.5-32.5 4.7l-7 1.8-0.2 1-0.3 1-0.3 3.5-0.2 3.5h-0.5l-0.5-1.5-0.5-1.5-0.5-1.5-0.5-1.5-0.5-5.5q-0.5-5.5 0-10t3.5-10.5 10-11 7.5-11.5 3.2-10q2.8-3.5 3.8-3.5h1l-0.5 1.2q-0.5 1.3 0.5 1.3h1l2-0.5 2-0.5 5.8-2.7q5.7-2.8 8.4-4.6 2.8-1.7 10.3-3.7t13.5-2.7q6-0.8 6 0.2t-1 1.2q-1 0.3-0.8 0.6z" fill="#754847" stroke="#754847"/>
  <path d="m693 42.8v-0.3l20 0.5q20 0.5 31.5 3.5t12.5 3.5-1.5 1.5 10.5 5 22.5 9.5 15.3 14.8q5.7 9.2 6.7 15.7t0 15-3.7 16.3q-2.8 7.7-7.6 13.4-4.7 5.8-5 9.8l-0.2 4-0.5-0.2-0.5-0.3-1-0.5-1-0.5-3-0.3-3-0.2v-2h3l-0.2-1-0.3-1-0.3-0.2-0.2-0.3-0.2-0.3-0.3-0.2-0.3-0.2-0.2-0.3-0.2-0.3-0.3-0.2-0.3-0.2q-0.2-0.3 1.3-0.8l1.5-0.5 0.2-0.3 0.3-0.2v-1.5q0-1.5-0.7-4.5-0.8-3-4.3-5t-3.5-3-4-2.2q-4-1.3-25-4.3l-21-3-1-0.5-1-0.5 1-0.5 1-0.5 1-0.5 1-0.5 2-0.5 2-0.5-2-0.3-2-0.2v-1q0-1 1-1t0.8-1l-0.3-1-0.3-0.2-0.2-0.3 0.2-0.3 0.3-0.2 0.3-0.5 0.2-0.5 1-0.2q1-0.3 1-0.6v-0.2l5.5 0.2q5.5 0.3 9.5 0.6l4 0.2v-2l1.5-0.2 1.5-0.3 0.2-0.3 0.3-0.2v-1l-0.3-1.5-0.2-1.5-1-0.2-1-0.3-1-0.5-1-0.5-0.2-0.3-0.3-0.2-0.3-0.2-0.2-0.3-0.2-0.3-0.3-0.2-0.3-0.2q-0.2-0.3-13.7-2.3l-13.5-2-1-0.3-1-0.2v-2h1q1 0 1-1.5t0.8-2q0.7-0.5 0.2-1t-0.5-2v-2q0-0.5-0.3-1l-0.2-0.5 1-0.2q1-0.3 1.2-0.6 0.3-0.2-3.4-4-3.8-3.7-4.6-5.4-0.7-1.8-3-3.6-2.2-1.7-5.2-3.2l-3-1.5-1.5-0.5-1.5-0.5 0.2-0.3 0.3-0.2 0.3-1.5 0.2-1.5h2v-2l4-2.2q4-2.3 5.5-2.8l1.5-0.5 1.5-0.3 1.5-0.2v-2l1-0.2 1-0.3-1-0.5-1-0.5-11.5-0.3q-11.5-0.2-11.7-1.2l-0.3-1-0.3-1-0.2-1h2v-1q0-1-3.5-1h-3.5v-0.2z" fill="#6d4b45" stroke="#6d4b45"/>
  <path d="m495 545.2v-0.2l7.5 0.2q7.5 0.3 7.5 0v-0.2l5.5 0.2q5.5 0.3 6.5 0.6l1 0.2 36.5 1.8q36.5 1.7 108.5 2.2t82.5 0.2l10.5-0.2v0.5l1 0.5 1 0.5 9 0.5q9 0.5 12.5 1l3.5 0.5 2.5 0.3 2.5 0.2v2l-1-0.2-1-0.3-0.2-0.3-0.3-0.2-0.3 0.2-0.2 0.3-0.2 0.3-0.3 0.2-0.3 0.2-0.2 0.3-0.2 0.3-0.3 0.2-0.3 0.2-0.2 0.3-0.2 0.3-0.3 0.2-0.3 1-0.2 1h-2q-2 0-2.2 1.5-0.3 1.5-4.6 2.7-4.2 1.3-11.7 1.3h-7.5l-3-0.3-3-0.2v2l3.5 0.2 3.5 0.3v0.5l-5.5 0.2q-5.5 0.3-17.5 0.6-12 0.2-12 1.2t-22 1h-22v-1q0-1-16-2.2-16-1.3-17.5-2.3t-4-0.5-11 1-9.3-0.2q-0.7-0.8-7-1-6.2-0.3-9.4-1-3.3-0.8-4-1.6-0.8-0.7-1.8 0.6-1 1.2-2 1.2t-2-1.5l-1-1.5-1 0.2-1 0.3-0.2 0.3-0.3 0.2-0.3 0.2-0.2 0.3-0.2 0.3-0.3 0.2-0.3-0.2-0.2-0.3-1-0.5q-1-0.5-2.5-0.8-1.5-0.2-1.5 0.8t-1 1-1-1-2-0.8q-2 0.3-3.8-0.4-1.7-0.8-4-1-2.2-0.3-2.7 1-0.5 1.2-6 1-5.5-0.3-5.5-2 0-1.8-4-1.8t-4.5 1.2q-0.5 1.3-1-0.4-0.5-1.8-14-2-13.5-0.3-14-1.6-0.5-1.2-10.5-2.4-10-1.3-16-1.6l-6-0.2-0.2-1-0.3-1-0.3-0.2-0.2-0.3 1.2-0.7q1.3-0.8 1-1-0.2-0.3 1.3-0.8l1.5-0.5v-0.3z" fill="#4a1e19" stroke="#4a1e19"/>
  <path d="m984.2 551l-0.2 1 1 0.2 1 0.3 0.2 0.3 0.3 0.2 8.3-0.2q8.2-0.3 11.7-0.3h3.5l4 0.3 4 0.2 8 2.8q8 2.7 14 6.4 6 3.8 6 4.8t7.2 7q7.3 6 13 12.2 5.8 6.3 6.8 6.6 1 0.2 7.2 9.7 6.3 9.5 6.8 10.5l0.5 1 0.3 0.2 0.2 0.3 0.2 0.3 0.3 0.2 0.5 1.5 0.5 1.5 0.3 0.2 0.2 0.3 0.2 0.3 0.3 0.2 0.3 1 0.2 1-1.5-0.2-1.5-0.3-0.2-0.3-0.3-0.2-0.3-0.2-0.2-0.3-1.5-0.5-1.5-0.5-0.2-0.3-0.3-0.2-0.3-0.2-0.2-0.3-1-0.5q-1-0.5-3.5-3t-3.3-1.8q-0.7 0.8-9-6.4-8.2-7.3-8.2-5.6 0 1.8-1 1.8t-2.5-1.8q-1.5-1.7-3-2.2t-4.5-1.5-4.5-0.5-2.5 0-1.5 0.2q-0.5 0.8-3 0-2.5-0.7-5.5-2.2t-9-2.2q-6-0.8-6-1.8t-1-0.8q-1 0.3-3-0.2t-9-2l-7-1.5-1 0.3-1 0.2-3-0.2q-3-0.3-9-1.8t-19-3-51.5-4l-38.5-2.5-0.2-0.3-0.3-0.2-0.3 0.2-0.2 0.3-0.2 0.3-0.3 0.2-0.3-0.2-0.2-0.3-1-0.5-1-0.5-1-0.5-1-0.5 1.5-0.5 1.5-0.5 4.5-1q4.5-1 4.7-1.3 0.3-0.2 0.6-0.7l0.2-0.5 35.5-4.8q35.5-4.7 47-8 11.5-3.2 12.7-5.2 1.3-2 0.6-2.8-0.8-0.7 0.7-1 1.5-0.2 1.5-1.2t1.5-1-0.3-3.5q-1.7-3.5-3-6-1.2-2.5-2.7-2.5h-1.5 3q3 0 5.5 3.2 2.5 3.3 3.7 3 1.3-0.2 2.3 4.8t0 6-1.3 2z" fill="#9b8982" stroke="#9b8982"/>
  <path d="m502.8 591l0.2-1 22.5 1.8q22.5 1.7 33 3.7t13 2.3l2.5 0.2v0.2q0 0.3 1.5 0.8l1.5 0.5 0.2 0.3 0.3 0.2 0.3 0.2 0.2 0.3 5.2 1.3q5.3 1.2 8 4.4 2.8 3.3 5.3 2.6 2.5-0.8 3.5 1.4 1 2.3 5.5 2.6 4.5 0.2 5 2.7t1.7 3q1.3 0.5 2 4.3 0.8 3.7 2 2.4 1.3-1.2 1 5.3-0.2 6.5 0.8 6.7l1 0.3-0.2 0.3-0.3 0.2-0.5 1.5-0.5 1.5-0.3 1-0.2 1-1 0.2-1 0.3-0.2 0.3-0.3 0.2-0.5 1-0.5 1-0.3-0.2-0.2-0.3-0.2-0.3-0.3-0.2-0.3-0.2q-0.2-0.3 0-3l0.3-2.8-0.3 0.2-0.2 0.3-0.2 0.3-0.3 0.2-0.3 0.2-0.2 0.3-0.2 0.3-0.3 0.2-0.3 0.2-0.2 0.3-0.2 0.3-0.3 0.2-3 3q-3 3-3.3 5-0.2 2-2.7 3t-3.3 3q-0.7 2-0.4 3.5 0.2 1.5-0.8 1.5t-1 1.5 0.8 2q0.7 0.5-0.3 3t-1.3 1.5q-0.2-1-2.4-0.5-2.3 0.5-2.6 0.7l-0.2 0.3-0.2 0.3-0.3 0.2-0.3 0.2-0.2 0.3-1.5 0.5-1.5 0.5v0.5h-1q-1 0-1-1t-4.5 1.8q-4.5 2.7-9.5 3.2t-7.8 2.8q-2.7 2.2-8.2 6.2t-8.8 3.5q-3.2-0.5-3.2 0.5t-1.8 2.5q-1.7 1.5-5.4 1.5h-3.8l-0.2-0.5-0.3-0.5-0.3-0.2-0.2-0.3 0.2-0.3 0.3-0.2 0.3-0.2 0.2-0.3-1-0.5-1-0.5-0.2-0.3-0.3-0.2-0.3 0.2-0.2 0.3h-2l-0.2-0.3q-0.3-0.2-3-0.2-2.8 0-3 1l-0.3 1-0.3-1.5-0.2-1.5-1-0.2-1-0.3-1-0.3-1-0.2v-2l0.2-0.5 0.3-0.5h0.5v-0.5l1-0.5 1-0.5 0.2-0.3 0.3-0.2 0.3-0.2q0.2-0.3 1-1.6 0.7-1.2 5.2-3.7t9.2-4.5q4.8-2 5-3 0.3-1 3-2.2 2.8-1.3 3.8-3.8t1.8-6.2q0.7-3.8 0.7-6.8t1.7-7.5q1.8-4.5 4.3-5t2.7-3q0.3-2.5 0.3-5.5t-3.3-8q-3.2-5-9.7-8.8-6.5-3.7-7-5-0.5-1.2-2-1.4-1.5-0.3-4.5-2.6-3-2.2-3-3.2t-6.2-2q-6.3-1-10-1.8l-3.8-0.7-0.2-0.3-0.3-0.2-0.3-0.2-0.2-0.3 0.2-0.3q0.3-0.2-2-1.2l-2.2-1h0.2q0.3 0 0.6-1z" fill="#98766b" stroke="#98766b"/>
  <path d="m688.5 43.2l4.5-0.2h3.5q3.5 0 3.5 1v1h-2l0.2 1 0.3 1 0.3 1q0.2 1 11.7 1.2l11.5 0.3 1 0.5 1 0.5-1 0.3-1 0.2v2l-1.5 0.2-1.5 0.3-1.5 0.5q-1.5 0.5-5.5 2.8l-4 2.2v2h-2l-0.2 1.5-0.3 1.5-0.3 0.2-0.2 0.3 1.5 0.5 1.5 0.5 3 1.5q3 1.5 5.2 3.2 2.3 1.8 3 3.6 0.8 1.7 4.6 5.4 3.7 3.8 3.4 4-0.2 0.3-1.2 0.6l-1 0.2h-0.2q-0.3 0-0.6 1.5-0.2 1.5-1.2 1.3-1-0.3-4 1.2t-8 1.5-8.5 1-34 3.5l-30.5 2.5h-2l-2-0.5-2-0.5-0.2-0.3-0.3-0.2-0.3-0.2-0.2-0.3 0.2-0.3 0.3-0.2 0.3-0.2 0.2-0.3 0.2-0.3 0.3-0.2 0.5-1 0.5-1 0.5-1 0.5-1 1-1.5q1-1.5 5.5-6.5t5-6.5l0.5-1.5 0.3-0.2 0.2-0.3 0.2-0.3 0.3-0.2 0.3-0.2 0.2-0.3 0.2-0.3 0.3-0.2 0.3-0.2 0.2-0.3 0.2-0.3 0.3-0.2 0.3-0.2 0.2-0.3 0.2-0.3 0.3-0.2 0.3-0.2 0.2-0.3-3-0.5-3-0.5h-2l-2 0.5q-2 0.5-4.5 1t-17.5 6l-15 5.5-1 0.5-1 0.5-3 0.3-3 0.2 0.2-1 0.3-1 0.3-0.2 0.2-0.3 0.2-0.3 0.3-0.2 0.3-0.5 0.2-0.5h0.5l0.3-0.5 0.2-0.5h0.5l0.3-0.2 0.2-0.3 1-0.5 1-0.5 17.5-7q17.5-7 22-8.5t6.5-2l2-0.5 1-0.5 1-0.5 1-0.5 1-0.5-1-0.5-1-0.5 0.2-0.3 0.3-0.2 0.3-0.2 0.2-0.3 0.2-0.3 0.3-0.2 0.3-0.2 0.2-0.3h-10l0.2-0.3 0.3-0.2 0.3-0.2 0.2-0.3 2.5-0.5 2.5-0.5 1.5-0.5 1.5-0.5 15.5-3q15.5-3 20-3.3z" fill="#481c1b" stroke="#481c1b"/>
  <path d="m734.5 110.2l1.5-0.2-0.2 0.5q-0.3 0.5-1.6 1.3l-1.2 0.7 0.2 0.3 0.3 0.2 0.3 1q0.2 1-0.8 1t-1 1v1l2 0.2 2 0.3-2 0.5-2 0.5-1 0.5-1 0.5-1 0.5-1 0.5 1 0.5 1 0.5 21 3q21 3 25 4.3 4 1.2 4 2.2t3.5 3 4.3 5q0.7 3 0.7 4.5v1.5l-0.3 0.2-0.2 0.3-1.5 0.5q-1.5 0.5-1.3 0.8l0.3 0.2 0.3 0.2 0.2 0.3 0.2 0.3 0.3 0.2 0.3 0.2 0.2 0.3 0.2 0.3 0.3 0.2 0.3 1 0.2 1h-3l-2-0.2q-2-0.3-2.5-0.3t-17.5-2-39.5-0.5-47 6-38 10.2q-13.5 5.8-13 8.3t-0.5 2.7q-1 0.3-17.2 8l-16.3 7.8h-1.5l-0.5 0.2-0.5 0.3v0.5l-1-0.2-1-0.3v-0.5h0.5l0.3-0.2 0.2-0.3 0.2-0.3 0.3-0.2 0.3-0.2 0.2-0.3 1-0.5q1-0.5-2-1l-3-0.5-0.2-0.3-0.3-0.2v-3q0-3 1.5-7l1.5-4 0.3-1 0.2-1 5.2-4.5q5.3-4.5 5.6-5.5 0.2-1 3-2.5 2.7-1.5 7.4-5.7 4.8-4.3 27.8-13.3t25-9.3q2-0.2 2-1.2t3.5-1.8q3.5-0.7 4.3-3 0.7-2.2-0.6-2.7-1.2-0.5-1.2-1.5t15.5-5.2q15.5-4.3 31.5-4.3t17.5-0.3z" fill="#562722" stroke="#562722"/>
  <path d="m423 505.2l3-0.2 2 0.2 2 0.3 1.5 0.5 1.5 0.5 6.8 4.3q6.7 4.2 17.4 12 10.8 7.7 19.6 10 8.7 2.2 14 5 5.2 2.7 7.2 3.2t6 1l4 0.5 4.5 0.5 4.5 0.5-5 0.5-5 0.5 1.5 0.3 1.5 0.2v0.2q0 0.3-7.5 0l-7.5-0.2-4-0.2q-4-0.3-39.5-4.3t-43-4.5-8-1.8q-0.5-1.2-3.3-1.7-2.7-0.5-6 0.3-3.2 0.7-6 3.4-2.7 2.8-4.4 2l-1.8-0.7-0.2-0.3-0.3-0.2-0.5-1-0.5-1-0.3-0.2-0.2-0.3-0.2-0.3-0.3-0.2-0.3-0.2-0.2-0.3-0.2-0.3-0.3-0.2-0.3-0.2-0.2-0.3 0.2-0.3 0.3-0.2 0.3-1 0.2-1-1-0.2-1-0.3 0.2-0.3q0.3-0.2-0.4-0.7l-0.8-0.5 2.8-1q2.7-1 4.2-5.5t8.8-7.7q7.2-3.3 19.2-5.8t15-2.8z" fill="#7c605e" stroke="#7c605e"/>
  <path d="m572 305.2l1-0.2h2q2 0 1.5 1.8-0.5 1.7-7 6-6.5 4.2-8.3 7.2-1.7 3-2.2 5.5t-0.5 5.5v3l0.5 1 0.5 1 0.3 0.2 0.2 0.3 0.2 0.3 0.3 0.2 0.3 0.2 0.2 0.3 9.5-0.5q9.5-0.5 11.5-0.2 2 0.2 3.8 16.7 1.7 16.5-0.3 19.5t-2.5 6l-0.5 3v2l0.5 3 0.5 3h0.5l0.8 2q0.7 2 1 3.5l0.2 1.5-2 0.2q-2 0.3-15.5 1.3t-19 3l-5.5 2-1 0.3-1 0.2v1q0 1 2 1t-1.5 4.2q-3.5 4.3-4.5 4.8t-2 1l-1 0.5-1 0.5-1 0.5-0.2 0.3-0.3 0.2-0.3 0.2-0.2 0.3-1.5 0.5-1.5 0.5-1.5 0.3-1.5 0.2v-0.5l0.2-0.3 0.3-0.2 0.3-0.2 0.2-0.3 0.2-0.3 0.3-0.2 0.3-0.2q0.2-0.3 0.4-0.6 0.3-0.2 0.8-3.2t-14-11-16.2-12.5q-1.8-4.5-2.8-4.7-1-0.3-1.5-1.6-0.5-1.2-3.7-2.2-3.3-1-4-9l-0.8-8 3.5-4.2q3.5-4.3 7.5-6 4-1.8 4-3.8v-2l0.5-0.2q0.5-0.3 2-0.8l1.5-0.5 1.5-0.5 1.5-0.5h6l0.2 0.3 0.3 0.2v1l-0.3 0.2-0.2 0.3-1 0.5q-1 0.5-1.8 1.8l-0.7 1.2-0.3 1-0.2 1 1.5-0.2 1.5-0.3 1.5-0.5 1.5-0.5 6-3.5q6-3.5 9.2-7.2 3.3-3.8 9-11.6 5.8-7.7 16.8-15.2t12.5-8.5 2.5-1.3z" fill="#724846" stroke="#724846"/>
  <path d="m600 112l1-0.5 3-0.3 3-0.2 0.2 1 0.3 1v3l-0.3-0.2-0.2-0.3-0.2-0.3-0.3-0.2-0.3 0.2-0.2 0.3-0.2 0.3-0.3 0.2-0.3 0.2-0.2 0.3-0.2 0.3-0.3 0.2-0.3 0.2-0.2 0.3-0.2 0.3-0.3 0.2-0.3 0.2q-0.2 0.3-1 2-0.7 1.8-2.4 3-1.8 1.3-3.8 2.3t-4.5 3.7q-2.5 2.8-4.5 3.3t-2 1.5-2 2.8q-2 1.7-2.8 3-0.7 1.2-4 4.4-3.2 3.3-7 10-3.7 6.8-2.7 9.3t2.3 6l1.2 3.5 2.5 0.8q2.5 0.7 3-0.6 0.5-1.2 3.5-0.4 3 0.7 3.8 0 0.7-0.8 1.2-1.8l0.5-1 0.3-0.2 0.2-0.3 1.5-0.3 1.5-0.2v2l-0.2 1-0.3 1-1.5 4q-1.5 4-1.5 7v3l0.3 0.2 0.2 0.3 3 0.3 3 0.2v3h-1l-0.2 0.5-0.3 0.5h-0.5l-0.2-1-0.3-1-0.3 0.2-0.2 0.3-0.2 0.3-0.3 0.2h-0.5l-0.5 0.2-0.5 0.3-0.2 0.3-0.3 0.2-0.3 0.2-0.2 0.3-0.2 0.3-0.3 0.2h-0.5l-0.2-1-0.3-1-0.3-0.2-0.2-0.3-0.2-0.3-0.3-0.2-0.5-1-0.5-1-0.3-1q-0.2-1-5.2-3.2-5-2.3-11-7.3t-10.8-13.7q-4.7-8.8-5.2-19.3t1.5-16.5l2-6 0.5-1q0.5-1 0.8-1.5l0.2-0.5h0.5l0.5 2.5 0.5 2.5 0.3-0.2 0.2-0.3 0.2-0.3 0.3-0.2 0.5-1.5 0.5-1.5 0.3 0.2 0.2 0.3 0.2 0.3 0.3 0.2 6.7-1.2q6.8-1.3 13-2 6.3-0.8 11-2.8 4.8-2 5.3-2.8 0.5-0.7 2.3-0.4 1.7 0.2 2 1 0.2 0.7 1.2 0.2z" fill="#7f5253" stroke="#7f5253"/>
  <path d="m596.2 562l-0.2-1 1 1.5q1 1.5 2 1.5t2-1.2q1-1.3 1.8-0.6 0.7 0.8 4 1.6 3.2 0.7 9.4 1 6.3 0.2 7 1 0.8 0.7 9.3 0.2t11-1 4 0.5 17.5 2.3q16 1.2 16 2.2v1l-0.5 0.2-0.5 0.3-0.2 0.3-0.3 0.2-0.3 0.2-0.2 0.3-1 0.5-1 0.5 1 0.5 1 0.5 0.2 0.3 0.3 0.2 0.3 0.2 0.2 0.3 1 0.5 1 0.5 3.8 1.3q3.7 1.2 4.7 2.7t0.7 1.7q-0.2 0.3 0 0.6l0.3 0.2 0.3 0.2 0.2 0.3 0.2 0.3 0.3 0.2 0.5 1 0.5 1 0.3-0.2 0.2-0.3h2l-0.2 0.3-0.3 0.2-0.3 1.5-0.2 1.5-1.5 0.2-1.5 0.3-1 0.5q-1 0.5-12.5 3l-11.5 2.5-0.2-0.3-0.3-0.2-0.3 0.2-0.2 0.3-0.2 0.3-0.3 0.2-0.3 0.2-0.2 0.3-0.2 0.3-0.3 0.2-0.3 0.2-0.2 0.3-1 0.5-1 0.5-0.2 0.3-0.3 0.2-0.3 1.5-0.2 1.5 2.5 0.8q2.5 0.7 4 1l1.5 0.2-0.2 1-0.3 1-0.3-0.2-0.2-0.3-0.2-0.3-0.3-0.2-0.5 1.5-0.5 1.5-0.3 0.2-0.2 0.3 0.2 0.3 0.3 0.2 0.3 0.2 0.2 0.3-1.5 0.3-1.5 0.2-0.2-1-0.3-1-0.3-0.2-0.2-0.3h-7l-0.2 0.3-0.3 0.2h-0.5l-0.5-0.2-0.5-0.3-0.2-0.3-0.3-0.2-0.3-0.2q-0.2-0.3-2-2.6-1.7-2.2-4.4-3l-2.8-0.7-0.2-0.3-0.3-0.2-0.3-1.5-0.2-1.5 1-0.2 1-0.3 1.5-0.5q1.5-0.5 3-1l1.5-0.5 0.2-0.3 0.3-0.2 0.3-0.2 0.2-0.3-2.5-0.5-2.5-0.5-0.2-0.3-0.3-0.2-0.3-0.2-0.2-0.3-4-0.5q-4-0.5-11.5-2.5t-13.5-4-12.2-4.7q-6.3-2.8-15.6-3.6l-9.2-0.7-0.2-0.3-0.3-0.2-0.3-0.2-0.2-0.3 1-0.5 1-0.5 0.2-0.3 0.3-0.2 0.3-0.2 0.2-0.3 4-1q4-1 4-1.3v-0.2l1.5-0.2q1.5-0.3 1.5-0.6v-0.2l1-0.2 1-0.3 0.2-0.3 0.3-0.2 0.5-1.5 0.5-1.5v-2l-0.3-1z" fill="#53241c" stroke="#53241c"/>
  <path d="m371.5 528.2l1.5-0.2 0.8 0.5q0.7 0.5 0.4 0.7l-0.2 0.3 1 0.3 1 0.2-0.2 1-0.3 1-0.3 0.2-0.2 0.3 0.2 0.3 0.3 0.2 0.3 0.2 0.2 0.3 0.2 0.3 0.3 0.2 0.3 0.2 0.2 0.3 0.2 0.3 0.3 0.2 0.5 1 0.5 1 0.3 0.2 0.2 0.3 1 0.3q1 0.2 1.5-0.6 0.5-0.7 2.7-2 2.3-1.2 6-2 3.8-0.7 3.3-2-0.5-1.2 3 0.3t4 2.7q0.5 1.3 8 1.8t43 4.5 39.5 4.3l4 0.2v0.5l-1.5 0.5q-1.5 0.5-1.3 0.8 0.3 0.2-1 1l-1.2 0.7 0.2 0.3 0.3 0.2 0.3 1 0.2 1 6 0.2q6 0.3 16 1.6 10 1.2 10.5 2.4 0.5 1.3 14 1.8t18.5 0.8q5 0.2 5 2 0 1.7 1 2 1 0.2 1-1.3t1-1.5 0.5 1.2q-0.5 1.3 3.5 1.6 4 0.2 4.5-1 0.5-1.3 2.7-1 2.3 0.2 4 1 1.8 0.7 3.8 0.4 2-0.2 2 0.8t1 1 1-1 1.5-0.8q1.5 0.3 2.5 0.8l1 0.5 0.2 0.3 0.3 0.2 0.3-0.2 0.2-0.3 0.2-0.3 0.3-0.2 0.3-0.2 0.2-0.3 1-0.3 1-0.2 0.2 1 0.3 1v2l-0.5 1.5-0.5 1.5-0.3 0.2-0.2 0.3-1 0.3-1 0.2-1.5 0.2q-1.5 0.3-1.5 0.6v0.2l-44.5-0.2q-44.5-0.3-104.3-4.6-59.7-4.2-68-9-8.2-4.7-15.2-5.2t-13.2 0.8q-6.3 1.2-13 4.4l-6.8 3.3-1 0.5-1 0.5-0.2 0.3-0.3 0.2-0.3 0.2-0.2 0.3h-5v-0.5l0.2-0.5 0.3-0.5h0.5v-2l1.5-0.2 1.5-0.3 0.2-0.3 0.3-0.2 0.3-0.2 0.2-0.3 0.2-0.3 0.3-0.2 0.3-0.2 0.2-0.3 10.5-8q10.5-8 23.5-13.5t14.5-5.8zm179.7 32q0.3-0.2 0.6 0 0.2 0.3-0.3 0.3t-0.3-0.3z" fill="#8a6359" stroke="#8a6359"/>
 </g>
</svg>
