<?xml version="1.0" standalone="no"?>
<!DOCTYPE svg PUBLIC "-//W3C//DTD SVG 20010904//EN"
 "http://www.w3.org/TR/2001/REC-SVG-20010904/DTD/svg10.dtd">
<svg version="1.0" xmlns="http://www.w3.org/2000/svg"
 width="626.000000pt" height="321.000000pt" viewBox="0 0 626.000000 321.000000"
 preserveAspectRatio="xMidYMid meet">

<g transform="translate(0.000000,321.000000) scale(0.100000,-0.100000)"
fill="#000000" stroke="none">
<path d="M4602 2938 c-44 -25 -52 -34 -46 -52 55 -192 140 -430 169 -473 21
-32 79 -88 154 -149 l120 -98 4 -300 c3 -296 4 -311 71 -901 38 -330 70 -602
72 -604 5 -6 224 -4 231 2 2 3 10 232 15 509 6 277 13 505 15 507 2 3 24 -5
49 -18 26 -12 49 -20 51 -17 3 3 -4 96 -16 208 -26 252 -27 230 6 217 64 -24
149 29 167 104 8 33 -133 470 -164 510 -27 34 -68 49 -125 45 -48 -3 -49 -3
-92 -73 -40 -64 -47 -71 -85 -77 -24 -4 -53 -19 -70 -35 l-28 -27 0 90 -1 89
-82 50 c-136 82 -169 123 -266 334 -47 100 -87 184 -91 186 -3 2 -29 -10 -58
-27z m671 -983 c20 -8 54 -15 76 -15 22 0 42 -4 45 -8 3 -5 -4 -34 -16 -65
-18 -50 -24 -57 -42 -51 -12 3 -26 12 -32 20 -13 17 -38 18 -66 3 -30 -16 -68
3 -68 34 0 17 11 32 34 48 26 18 32 27 24 36 -14 17 1 17 45 -2z"/>
<path d="M5102 2824 c-47 -32 -14 -78 78 -109 46 -15 48 -18 40 -41 -10 -26 2
-75 14 -56 10 17 46 15 52 -2 3 -8 1 -23 -5 -34 -8 -15 -6 -23 9 -37 19 -17
20 -17 20 -1 0 10 20 37 45 62 50 48 57 80 25 109 -11 10 -20 24 -20 31 0 16
-36 37 -49 30 -5 -3 -11 3 -14 14 -7 27 -33 35 -61 20 -20 -10 -30 -9 -64 9
-49 25 -43 25 -70 5z"/>
<path d="M1196 2769 c-27 -15 -41 -18 -49 -10 -17 17 -46 13 -59 -9 -7 -11
-21 -20 -30 -20 -10 0 -25 -12 -35 -27 -10 -16 -23 -34 -30 -41 -24 -25 -14
-60 30 -104 24 -24 46 -50 49 -58 5 -13 8 -13 24 2 14 14 15 21 6 30 -27 27
-3 67 29 47 25 -16 31 -10 28 32 l-3 41 59 22 c32 13 65 32 73 44 13 19 12 25
-2 47 -20 30 -38 31 -90 4z"/>
<path d="M82 2678 c-7 -7 -12 -21 -12 -33 0 -32 20 -45 67 -45 l43 0 0 -155
c0 -131 2 -155 15 -155 13 0 15 24 15 155 l0 155 43 0 c47 0 67 13 67 45 0 38
-19 45 -125 45 -65 0 -105 -4 -113 -12z"/>
<path d="M1253 2588 c-22 -11 -39 -38 -24 -38 22 0 71 24 68 33 -5 15 -19 17
-44 5z"/>
<path d="M301 2430 c-6 -28 -11 -57 -11 -63 0 -7 100 -62 221 -122 l222 -110
108 1 c77 1 109 -3 109 -11 0 -6 -13 -141 -30 -300 -16 -159 -30 -290 -30
-292 0 -2 -67 -3 -150 -3 l-150 0 0 -720 0 -720 633 -1 c347 -1 709 -2 802 -3
94 -1 414 0 713 2 l542 2 0 640 0 640 -1300 0 -1300 0 0 -525 c0 -343 -3 -525
-10 -525 -7 0 -10 185 -10 535 l0 535 1310 0 1310 0 0 70 0 70 -60 0 c-56 0
-60 1 -60 24 0 31 -26 36 -204 36 -137 0 -142 -1 -151 -22 -9 -21 -18 -23
-120 -29 -60 -4 -267 -7 -458 -8 -341 -1 -349 -1 -354 19 -5 19 -14 20 -139
20 -127 0 -134 -1 -134 -20 0 -19 -7 -20 -110 -20 l-110 0 0 289 0 289 110 4
111 3 214 109 c118 60 215 115 215 122 0 24 -23 114 -30 114 -3 0 -87 -30
-186 -66 -235 -87 -295 -92 -508 -38 l-26 6 -1 -138 c-1 -77 -4 -149 -7 -162
-6 -19 -24 4 -112 144 -58 92 -108 171 -111 176 -4 6 -55 -1 -125 -17 -154
-35 -182 -31 -410 50 -100 36 -186 65 -192 65 -6 0 -15 -23 -21 -50z"/>
<path d="M1175 2470 c-19 -8 -19 -9 3 -9 12 -1 22 4 22 9 0 6 -1 10 -2 9 -2 0
-12 -4 -23 -9z"/>
<path d="M1130 2355 c0 -40 5 -42 38 -17 l24 18 -26 17 c-34 23 -36 22 -36
-18z"/>
<path d="M1232 2372 l-24 -18 26 -17 c34 -23 36 -22 36 18 0 40 -5 42 -38 17z"/>
<path d="M2305 2364 c-84 -44 -98 -77 -103 -246 l-4 -138 51 0 51 0 0 54 c0
56 -23 126 -41 126 -6 0 -9 10 -7 22 2 16 15 24 53 35 28 8 60 25 71 38 22 23
22 23 39 5 10 -11 27 -23 39 -27 20 -6 20 -7 -3 -12 -54 -14 -52 -78 3 -74 25
2 25 1 12 -26 -18 -33 -32 -45 -71 -59 l-30 -10 32 -1 c30 -1 32 -3 29 -36
l-2 -35 44 0 44 0 -4 158 c-3 134 -6 161 -22 185 -37 55 -119 74 -181 41z
m160 -184 c0 -29 -32 -41 -41 -16 -9 24 4 48 23 44 12 -2 18 -12 18 -28z"/>
<path d="M4182 2360 c-29 -27 -28 -38 8 -58 16 -9 30 -25 30 -34 0 -30 12 -48
31 -48 26 0 35 -26 19 -54 -32 -61 77 -121 114 -63 15 23 36 132 36 184 0 40
-33 68 -98 82 -78 16 -115 14 -140 -9z"/>
<path d="M2322 2208 c-32 -32 2 -79 43 -60 39 18 27 72 -15 72 -9 0 -21 -5
-28 -12z m55 -14 c3 -8 -2 -23 -11 -32 -15 -15 -17 -15 -32 0 -21 21 -11 48
16 48 11 0 23 -7 27 -16z"/>
<path d="M4130 1989 c-70 -41 -75 -56 -78 -231 -3 -152 -4 -157 -25 -160 -19
-3 -22 -10 -25 -60 -3 -54 -2 -58 23 -64 23 -6 26 -10 23 -48 l-3 -41 -97 -24
-98 -23 0 -64 0 -64 -48 0 c-27 0 -57 -6 -68 -15 -10 -8 -30 -15 -43 -15 -61
0 -131 -97 -131 -181 0 -24 25 -151 57 -281 l57 -238 68 0 68 0 0 205 0 205
23 0 c18 0 34 -23 92 -131 95 -178 80 -164 149 -146 32 9 60 18 63 20 2 3 -4
37 -15 75 -11 39 -17 73 -14 76 3 3 31 6 63 6 l59 0 -7 -32 c-45 -221 -51
-243 -63 -240 -7 1 -22 -4 -35 -12 -12 -8 -31 -12 -42 -10 -17 5 -23 -3 -37
-47 -10 -29 -29 -75 -42 -101 -37 -73 -29 -132 12 -87 11 12 44 43 75 70 l56
48 -23 -122 c-13 -67 -26 -132 -29 -145 -5 -19 -1 -22 25 -22 16 0 30 1 30 3
0 5 129 650 135 675 4 18 12 22 44 22 l39 0 68 -347 69 -348 28 -3 c18 -2 27
1 27 10 0 8 -29 160 -65 338 -36 178 -65 330 -65 337 0 10 22 13 85 13 79 0
86 2 95 23 26 61 180 680 180 721 0 86 -57 150 -143 162 l-47 7 0 86 c0 107
-11 149 -51 187 l-30 29 -177 3 c-164 2 -180 1 -212 -19z m-2 -1106 c-10 -2
-26 -2 -35 0 -10 3 -2 5 17 5 19 0 27 -2 18 -5z"/>
<path d="M3795 1961 c-48 -12 -74 -33 -96 -79 -37 -76 -10 -149 70 -187 l41
-20 0 -102 c0 -57 4 -103 9 -103 14 0 20 36 16 103 -4 88 0 100 48 122 55 26
92 94 81 150 -15 80 -94 134 -169 116z"/>
<path d="M5914 1686 c-60 -19 -129 -70 -165 -123 -26 -37 -47 -104 -115 -360
-46 -174 -84 -317 -84 -319 0 -2 -22 -4 -48 -4 -52 0 -72 -12 -72 -45 0 -37
19 -45 112 -45 64 0 88 -3 88 -12 0 -7 -29 -159 -65 -338 -36 -179 -65 -331
-65 -338 0 -9 10 -12 27 -10 l27 3 70 347 69 348 38 0 c32 0 40 -4 44 -22 6
-25 135 -670 135 -675 0 -2 14 -3 30 -3 26 0 30 3 25 23 -6 24 -135 669 -135
674 0 2 38 3 84 3 55 0 87 4 94 13 19 24 187 681 186 733 -1 128 -129 197
-280 150z"/>
<path d="M3682 342 c-11 -20 -41 -60 -65 -89 -41 -47 -65 -98 -53 -110 4 -5
235 118 263 140 10 7 8 18 -9 48 -22 39 -40 47 -68 29 -10 -6 -20 -4 -30 5
-15 13 -19 11 -38 -23z"/>
<path d="M5121 216 c-7 -8 -30 -17 -51 -21 -39 -7 -90 -38 -90 -56 0 -5 74 -9
175 -9 l175 0 0 35 0 35 -68 0 c-44 0 -75 5 -88 15 -24 18 -39 19 -53 1z"/>
</g>
</svg>
